<?xml version="1.0" encoding="utf-8"?>
<!-- Generator: Adobe Illustrator 27.5.0, SVG Export Plug-In . SVG Version: 6.00 Build 0)  -->
<svg version="1.1" xmlns="http://www.w3.org/2000/svg" xmlns:xlink="http://www.w3.org/1999/xlink" x="0px" y="0px"
	 viewBox="0 0 3710 3710" style="enable-background:new 0 0 3710 3710;" xml:space="preserve">
<g id="Background">
	<g>
		<g>
			<rect style="fill:#FFFFFF;" width="3710" height="3710"/>
		</g>
	</g>
</g>
<g id="Illustration">
	<g>
		<path style="fill:#F4F7FA;" d="M721.723,1001.745c42.884-58.699,410.019-544.116,1005.127-520.471
			c29.737,1.182,610.127,31.833,824.201,412.341c158.356,281.472-9.296,531.208,183.887,722.982
			c168.327,167.1,375.196,56.496,478.637,191.621c157.569,205.834-93.363,761.737-478.905,1071.759
			c-398.096,320.119-1159.702,554.97-1751.65,127.871C318.429,2528.335,325.173,1544.527,721.723,1001.745z"/>
		<g>
			<g>
				<g>
					<defs>
						<path id="SVGID_1_" d="M2454.04,2672.913c-93.003-331.975,141.352-437.805,235.543-500.992
							c142.048-95.293,240.131-257.833,81.177-376.92c-158.955-119.087,85.065-437.187,328.932-549.153
							c238.641-109.567,259.326-717.461-270.265-541.209c-316.271,105.258-349.115,516.656-403.086,722.886
							c-53.971,206.23-290.535,167.673-259.989,442.726c26.093,234.945,64.531,521.817-63.268,648.418
							C1975.287,2645.268,2499.623,2835.622,2454.04,2672.913z"/>
					</defs>
					<clipPath id="SVGID_00000124131156575698599900000004075483346104118157_">
						<use xlink:href="#SVGID_1_"  style="overflow:visible;"/>
					</clipPath>
					
						<linearGradient id="SVGID_00000100368638962932442680000013394446768464957867_" gradientUnits="userSpaceOnUse" x1="2639.5093" y1="1736.9067" x2="1413.3776" y2="2336.1953">
						<stop  offset="0" style="stop-color:#FFC444"/>
						<stop  offset="0.9964" style="stop-color:#F36F56"/>
					</linearGradient>
					
						<path style="clip-path:url(#SVGID_00000124131156575698599900000004075483346104118157_);fill:url(#SVGID_00000100368638962932442680000013394446768464957867_);" d="
						M3099.691,1245.847c-243.865,111.966-445.76,390.043-307.445,545.838c122.247,137.695,39.385,284.943-102.661,380.236
						c-70.699,47.427-220.351,118.881-251.287,291.94c-10.474-3.593,49.95,295.274,38.501,296.19
						c-51.059,4.086-140.31-55.004-154.113,8.389l-267.866-171.146c19.356-66.338,57.063-123.92,108.681-175.054
						c127.797-126.601,28.945-317.044,2.852-551.991c-30.545-275.052,206.019-236.495,259.989-442.725
						c53.97-206.229,86.815-617.628,403.088-722.887C3359.019,528.385,3338.336,1136.28,3099.691,1245.847z"/>
					<path style="clip-path:url(#SVGID_00000124131156575698599900000004075483346104118157_);fill:#BEB8F2;" d="M3335.228,877.836
						l0.389-8.595c-227.132,4.497-426.853,120.819-593.605,345.726c-20.184,27.225-39.885,56.066-59.111,86.449
						c30.761-284.196,182.69-651.933,184.241-655.665l-5.684-3.684c-1.58,3.802-158.33,383.188-186.253,670.55l0.668,0.047
						c-104.64,168.505-194.689,383.88-268.33,642.274c-14.784,51.877-28.394,103.789-40.943,155.248
						c-3.177-253.154-164.956-463.347-166.654-465.52l-4.738,6.369c1.741,2.23,173.694,225.681,164.568,487.484
						c-13.363,56.358-25.442,112.042-36.36,166.404c-0.007,0.018-0.016,0.036-0.023,0.055l0.01,0.006
						c-19.49,97.048-35.278,189.866-47.992,274.657l6.643-0.531c12.606-83.909,28.227-175.66,47.471-271.559
						c147.921-381.065,572.213-381.589,576.324-381.139l1.44-8.493c-3.868-0.924-411.513,1.638-570.924,356.123
						c21.346-102.849,46.863-209.902,77.33-316.79c77.934-273.419,198.059-576.99,378.782-792.402
						c245.699-123.536,426.901,8.142,428.71,9.493l3.541-7.549c-1.797-1.348-178.136-129.65-419.216-17.193
						C2944.471,989.82,3118.376,882.131,3335.228,877.836z M2100.976,2449.575l-5.815,4.49c0.829,2.028,3.783,6.521,10.978,17.393
						c15.164,22.905,43.314,65.466,70.334,116.101l7.877-0.63c-27.925-53.044-57.428-97.644-73.141-121.38
						C2106.041,2457.74,2101.578,2451,2100.976,2449.575z"/>
				</g>
			</g>
			<g>
				
					<linearGradient id="SVGID_00000093855414184780904880000006436575613548732806_" gradientUnits="userSpaceOnUse" x1="1274.0594" y1="732.9024" x2="762.3948" y2="2961.335" gradientTransform="matrix(-0.9648 -0.2629 -0.2629 0.9648 3791.1309 345.5324)">
					<stop  offset="0" style="stop-color:#FF9085"/>
					<stop  offset="1" style="stop-color:#FB6FBB"/>
				</linearGradient>
				<path style="fill:url(#SVGID_00000093855414184780904880000006436575613548732806_);" d="M2031.6,2215.451l-102.899-338.275
					c55.241-100.051,167.759-186.482,211.53-235.709c92.371-103.88,122.399-152.572,66.419-434.563
					c-118.934-377.417-56.942-686.655,107.158-740.467c166.27-54.525,277.809,93.917,284.013,275.013
					c3.97,115.867,127.043,77.488,151.677,231.233c21.621,134.948-137.28,297.227-204.882,394.3
					C2368.043,1620.538,2578.771,2395.147,2031.6,2215.451z"/>
				<g>
					<defs>
						<path id="SVGID_00000136407608456164422500000007440025547582054562_" d="M2372.45,2187.634
							c217.373-266.343-82.006-455.668,172.168-820.649c67.602-97.074,226.502-259.353,204.88-394.302
							c-24.634-153.745-147.707-115.366-151.677-231.233c-6.204-181.096-117.744-329.538-284.011-275.013
							c-164.099,53.813-226.092,363.051-107.16,740.467c55.979,281.991,25.953,330.684-66.417,434.563
							c-64.7,72.762-279.781,226.77-237.719,385.975C1944.576,2186.649,2292.335,2285.798,2372.45,2187.634z"/>
					</defs>
					<clipPath id="SVGID_00000157999663058957205300000000514040032290305714_">
						<use xlink:href="#SVGID_00000136407608456164422500000007440025547582054562_"  style="overflow:visible;"/>
					</clipPath>
					<path style="clip-path:url(#SVGID_00000157999663058957205300000000514040032290305714_);fill:#FCFDFE;" d="M2333.102,1494.173
						c55.733-280.521,407.632-608.687,411.181-611.967l-4.045-4.935c-3.315,3.066-309.132,288.282-397.226,555.608
						c10.164-65.8,18.335-131.195,24.433-196.002c4.485-47.671,7.832-95.088,10.12-142.174l0.039-0.008
						c-0.008-0.062-0.021-0.125-0.03-0.187c4.25-87.578,4.715-173.967,1.354-258.506l0.098,0.013
						c22.817-157.507,81.168-318.582,100.343-371.512c4.641-12.813,6.261-17.328,6.571-18.995l-6.16-1.067
						c-0.252,1.27-2.905,8.594-6.266,17.867c-17.817,49.185-69.353,191.451-95.071,337.908c-0.125,0.712-1.136,0.645-1.174-0.077
						c-1.054-19.994-2.309-39.885-3.799-59.648c-8.44-111.979-23.669-219.017-45.276-318.138
						c-3.764-17.276-8.531-34.687-13.146-51.527c-6.145-22.435-12.501-45.634-16.519-68.688l-6.174,1.411
						c4.072,23.37,10.47,46.726,16.657,69.314c4.588,16.755,9.334,34.081,13.059,51.18c21.542,98.81,36.726,205.528,45.142,317.192
						c8.038,106.691,9.735,216.872,5.17,329.119c-39.588-140.133-242.256-291.178-251.355-297.899l-3.707,5.484
						c2.331,1.722,233.102,173.666,253.946,317.17c-2.283,46.806-5.613,93.941-10.072,141.329
						c-19.859,211.063-61.515,428.345-123.811,645.81c-6.968,24.327-14.294,48.706-21.801,73.109l6.031,1.643
						c7.496-24.373,14.814-48.723,21.775-73.023c37.368-130.441,67.262-260.811,89.557-389.834L2333.102,1494.173z
						 M1984.094,1765.026c0.797,1.382,35.564,62.497,69.464,146.176l7.65,2.085c-34.675-86.683-70.902-150.428-71.717-151.843
						L1984.094,1765.026z"/>
				</g>
			</g>
		</g>
		<g>
			
				<linearGradient id="SVGID_00000120535668331097411630000013267819128190959544_" gradientUnits="userSpaceOnUse" x1="1536.3566" y1="-911.2038" x2="1375.8809" y2="2570.5791">
				<stop  offset="0" style="stop-color:#444B8C"/>
				<stop  offset="0.9964" style="stop-color:#26264F"/>
			</linearGradient>
			<path style="fill:url(#SVGID_00000120535668331097411630000013267819128190959544_);" d="M2194.055,847.71
				c0-35.031-25.702-64.387-55.845-65.574L687.345,724.958c-36.104-1.421-63.841,28.658-63.841,67.197v2281.571
				c0,38.54,26.466,66.947,62.572,63.304l1452.992-146.553c30.143-3.042,54.987-33.892,54.987-68.923V847.71z"/>
			
				<linearGradient id="SVGID_00000057866278401212538730000004003843670100337035_" gradientUnits="userSpaceOnUse" x1="1509.6006" y1="528.7271" x2="1349.1301" y2="4010.3965">
				<stop  offset="0" style="stop-color:#444B8C"/>
				<stop  offset="0.9964" style="stop-color:#26264F"/>
			</linearGradient>
			<path style="fill:url(#SVGID_00000057866278401212538730000004003843670100337035_);" d="M2231.941,847.71
				c0-35.031-23.495-64.387-53.638-65.574L728.056,724.958c-36.104-1.421-63.222,28.658-63.222,67.197v2281.571
				c0,38.54,26.951,66.947,63.057,63.304l1451.027-146.553c30.143-3.042,53.022-33.892,53.022-68.923V847.71z"/>
			
				<linearGradient id="SVGID_00000003826192975599368920000012377211480596372117_" gradientUnits="userSpaceOnUse" x1="1507.4384" y1="739.4073" x2="1371.317" y2="3692.7837">
				<stop  offset="0.494" style="stop-color:#EBEFF2"/>
				<stop  offset="1" style="stop-color:#FFFFFF"/>
			</linearGradient>
			<path style="fill:url(#SVGID_00000003826192975599368920000012377211480596372117_);" d="M2166.501,991.496v1796.72
				c0,18.612-13.802,36.759-29.834,38.198L875.934,2940.203l-98.965,8.926c-5.713,0.507-11.215-0.677-15.656-3.131
				c-10.447-5.753-17.263-18.485-17.263-32.698V954.441c0-11.083,3.399-20.77,10.674-27.284c2.074-1.862,4.426-3.469,6.71-4.696
				c4.313-2.453,9.215-3.68,14.841-3.511l99.486,2.792l1261.055,35.49C2152.891,957.698,2166.501,972.884,2166.501,991.496z"/>
			<path style="fill:#FFFFFF;" d="M2111.377,2828.663L777.44,2949.042c-18.967,1.711-33.39-15.455-33.39-35.745V954.456
				c0-11.079,3.896-20.9,11.179-27.404c4.374,11.623,8.737,23.082,13.823,34.312c149.897,330.878,448.422,114.514,645.801,441.084
				c154.503,255.619,35.113,497.798,209.655,781.882c137.979,224.51,260.852,148.035,386.553,364.086
				C2059.464,2631.608,2090.973,2729.178,2111.377,2828.663z"/>
			<g>
				<g>
					<path style="fill:#97A6B7;" d="M1090.198,1468.512l-52.938,160.323h-68.063l173.181-509.709h79.407l173.935,509.709h-70.33
						l-54.451-160.323H1090.198z M1257.328,1417.086l-49.913-146.712c-11.344-33.273-18.905-63.524-26.469-93.017h-1.513
						c-7.561,30.249-15.879,61.255-25.711,92.262l-49.912,147.466H1257.328z"/>
				</g>
				<polygon style="fill:#97A6B7;" points="2008.388,1328.063 1461.707,1324.71 1461.707,1284.977 2008.388,1289.749 				"/>
				<polygon style="fill:#97A6B7;" points="2008.388,1397.437 1461.707,1396.654 1461.707,1356.921 2008.388,1359.124 				"/>
				<polygon style="fill:#97A6B7;" points="2008.388,1466.813 1461.707,1468.599 1461.707,1428.866 2008.388,1428.499 				"/>
				<polygon style="fill:#97A6B7;" points="2008.388,1536.187 1461.707,1540.543 1461.707,1500.81 2008.388,1497.874 				"/>
				<polygon style="fill:#97A6B7;" points="2008.388,1605.562 1461.707,1612.488 1461.707,1572.755 2008.388,1567.249 				"/>
				<polygon style="fill:#97A6B7;" points="2008.388,1720.072 924.091,1742.22 924.091,1701.092 2008.388,1681.758 				"/>
				<polygon style="fill:#97A6B7;" points="2008.388,1789.447 924.091,1816.691 924.091,1775.563 2008.388,1751.133 				"/>
				<polygon style="fill:#97A6B7;" points="2008.388,1858.822 924.091,1891.163 924.091,1850.034 2008.388,1820.508 				"/>
				<polygon style="fill:#97A6B7;" points="2008.388,1928.197 924.091,1965.634 924.091,1924.506 2008.388,1889.883 				"/>
				<polygon style="fill:#97A6B7;" points="2008.388,1997.572 924.091,2040.106 924.091,1998.977 2008.388,1959.258 				"/>
				<polygon style="fill:#97A6B7;" points="2008.388,2136.322 924.091,2189.048 924.091,2147.92 2008.388,2098.008 				"/>
				<polygon style="fill:#97A6B7;" points="2008.388,2205.697 924.091,2263.52 924.091,2222.391 2008.388,2167.383 				"/>
				<polygon style="fill:#97A6B7;" points="2008.388,2275.072 924.091,2337.991 924.091,2296.863 2008.388,2236.758 				"/>
				<polygon style="fill:#97A6B7;" points="2008.388,2344.447 924.091,2412.462 924.091,2371.334 2008.388,2306.133 				"/>
				<polygon style="fill:#97A6B7;" points="2008.388,2413.822 924.091,2486.934 924.091,2445.805 2008.388,2375.508 				"/>
				<polygon style="fill:#97A6B7;" points="2008.388,2532.329 924.091,2612.034 924.091,2570.906 2008.388,2494.015 				"/>
				<polygon style="fill:#97A6B7;" points="2008.388,2601.704 924.091,2686.506 924.091,2645.377 2008.388,2563.39 				"/>
				<polygon style="fill:#97A6B7;" points="2008.388,2671.079 924.091,2760.977 924.091,2719.848 2008.388,2632.765 				"/>
			</g>
			
				<linearGradient id="SVGID_00000025431024760918121830000006744364876577468583_" gradientUnits="userSpaceOnUse" x1="1519.5328" y1="2298.0713" x2="1408.6234" y2="5121.2822">
				<stop  offset="0" style="stop-color:#444B8C"/>
				<stop  offset="0.9964" style="stop-color:#26264F"/>
			</linearGradient>
			<path style="fill:url(#SVGID_00000025431024760918121830000006744364876577468583_);" d="M1608.542,2961.302
				c0,11.259-9.132,21.033-20.41,21.832l-189.428,13.43c-11.549,0.819-20.923-7.769-20.923-19.182l0,0
				c0-11.413,9.374-21.307,20.923-22.098l189.428-12.97C1599.411,2941.542,1608.542,2950.043,1608.542,2961.302L1608.542,2961.302z"
				/>
			<g>
				
					<linearGradient id="SVGID_00000178913153544631268540000013171565203784189610_" gradientUnits="userSpaceOnUse" x1="1674.3827" y1="990.809" x2="2035.6002" y2="990.809">
					<stop  offset="0.494" style="stop-color:#EBEFF2"/>
					<stop  offset="1" style="stop-color:#FFFFFF"/>
				</linearGradient>
				<path style="opacity:0.3;fill:url(#SVGID_00000178913153544631268540000013171565203784189610_);" d="M1674.383,1026.483
					l2.098-262.075l245.724,261.182c0,0,131.501,67.939,111.282,191.62l-150.07-56.685l-131.578,48.185
					C1751.839,1208.71,1746.256,1079.281,1674.383,1026.483z"/>
				
					<linearGradient id="SVGID_00000020386373242287059370000002942259285681458091_" gradientUnits="userSpaceOnUse" x1="1849.4515" y1="1029.2739" x2="1868.0361" y2="847.717">
					<stop  offset="0" style="stop-color:#FF9085"/>
					<stop  offset="1" style="stop-color:#FB6FBB"/>
				</linearGradient>
				<path style="fill:url(#SVGID_00000020386373242287059370000002942259285681458091_);" d="M1948.23,772.13l-278.042-10.962
					c0,0,134.099,96.871,81.651,447.543c0,0,114.017-38.425,162.802-101.65l118.846,110.151
					C2033.487,1217.21,2102.691,901.108,1948.23,772.13z"/>
			</g>
		</g>
		<g>
			<g>
				<g>
					
						<linearGradient id="SVGID_00000176740451327219705690000003450346691380316829_" gradientUnits="userSpaceOnUse" x1="3436.4697" y1="2146.5457" x2="4457.7446" y2="4328.2114" gradientTransform="matrix(-1 0 0 1 6217.5273 0)">
						<stop  offset="0" style="stop-color:#AA80F9"/>
						<stop  offset="0.9964" style="stop-color:#6165D7"/>
					</linearGradient>
					<path style="fill:url(#SVGID_00000176740451327219705690000003450346691380316829_);" d="M2622.62,2058.09
						c0,0,172.068-297.944,404.771,208.737c181.2,394.543,64.087,833.475-355.114,953.916
						c-419.201,120.44-1073.939-122.802-868.427-294.227C2239.791,2562.887,2570.653,2240.575,2622.62,2058.09z"/>
					<g style="opacity:0.3;">
						
							<linearGradient id="SVGID_00000005973998759833359080000006367827245520897946_" gradientUnits="userSpaceOnUse" x1="3905.5896" y1="2471.28" x2="3811.2295" y2="3026.207" gradientTransform="matrix(-1 0 0 1 6217.5273 0)">
							<stop  offset="0" style="stop-color:#AA80F9"/>
							<stop  offset="0.9964" style="stop-color:#6165D7"/>
						</linearGradient>
						<path style="fill:url(#SVGID_00000005973998759833359080000006367827245520897946_);" d="M2838.534,2325.837
							c12.249,36.085,15.022,138.89,9.854,257.119c-4.611,105.466,4.964,160.606-162.83,237.316
							c-57.514,26.293-97.289,109.729-185.349,159.366c-39.924,22.503-190.323,103.921-384.555,71.021
							c-128.516-21.768-224.205-84.803-288.642-143.541c424.422-355.661,744.569-669.8,795.609-849.029
							c0,0,62.871-108.777,163.978-83.027C2762.071,2002.409,2753.742,2076.046,2838.534,2325.837z"/>
					</g>
					<g style="opacity:0.3;">
						
							<linearGradient id="SVGID_00000034086467482217334690000015928019842112396676_" gradientUnits="userSpaceOnUse" x1="3436.4692" y1="2146.5464" x2="4457.7466" y2="4328.2163" gradientTransform="matrix(-1 0 0 1 6217.5273 0)">
							<stop  offset="0" style="stop-color:#AA80F9"/>
							<stop  offset="0.9964" style="stop-color:#6165D7"/>
						</linearGradient>
						<path style="fill:url(#SVGID_00000034086467482217334690000015928019842112396676_);" d="M2001.325,3100.894
							c198.253,109.472,529.357,176.29,776.041-6.929c228.406-169.644,248.756-453.753,256.371-540.457
							c13.307-151.53-16.297-283.477-58.982-389.907c17.154,29.982,34.714,64.2,52.636,103.226
							c181.2,394.543,64.087,833.475-355.114,953.915c-412.625,118.551-1053.454-115.26-877.464-286.108
							C1844.83,2991.054,1912.315,3051.744,2001.325,3100.894z"/>
					</g>
				</g>
				
					<linearGradient id="SVGID_00000079452347500636248600000008793943711131789213_" gradientUnits="userSpaceOnUse" x1="3186.8569" y1="2585.1475" x2="4112.0298" y2="2585.1475" gradientTransform="matrix(-1 0 0 1 6143.6299 0)">
					<stop  offset="0" style="stop-color:#AA80F9"/>
					<stop  offset="0.9964" style="stop-color:#6165D7"/>
				</linearGradient>
				<path style="opacity:0.3;fill:url(#SVGID_00000079452347500636248600000008793943711131789213_);" d="M2313.65,3133.405
					c5.874,0,11.77-0.066,17.737-0.198c153.112-3.418,368.075-54.277,522.638-277.133
					c130.545-188.228,113.073-400.657,75.429-545.716c-40.74-156.991-113.266-271.081-113.994-272.215
					c-0.815-1.27-2.501-1.631-3.765-0.822c-1.267,0.813-1.634,2.498-0.822,3.765c0.722,1.128,72.841,114.608,113.344,270.792
					c37.321,143.916,54.661,354.608-74.671,541.091c-153.256,220.972-366.435,271.4-518.28,274.788
					c-164.767,3.668-294.668-45.555-295.962-46.052c-1.396-0.544-2.979,0.16-3.521,1.565c-0.542,1.405,0.159,2.982,1.565,3.521
					C2034.603,3087.275,2156.406,3133.399,2313.65,3133.405z"/>
			</g>
			<g>
				<g>
					<g>
						
							<linearGradient id="SVGID_00000098913739730318894610000014162204809103013270_" gradientUnits="userSpaceOnUse" x1="1476.5853" y1="3134.3308" x2="1614.3525" y2="3458.0837">
							<stop  offset="0" style="stop-color:#AB316D"/>
							<stop  offset="1" style="stop-color:#792D3D"/>
						</linearGradient>
						<path style="fill:url(#SVGID_00000098913739730318894610000014162204809103013270_);" d="M1491.429,3105.225
							c10.927-11.763,30.505-62.397-5.203-72.799c-35.907-10.461-55.864-23.708-105.307-63.344
							c-49.444-39.635-62.143-5.6,7.693,58.772C1458.446,3092.225,1475.891,3121.95,1491.429,3105.225z"/>
						<path style="fill:#FFFFFF;" d="M1538.214,3031.285l-29.411,25.68c-6.144,5.364-15.082,6.054-21.977,1.695
							c-3.213-2.031-5.27-5.467-5.543-9.258c-0.273-3.791,1.27-7.487,4.158-9.958l42.992-36.786L1538.214,3031.285z"/>
					</g>
					<g>
						
							<linearGradient id="SVGID_00000019640990495269873990000003268168797235916713_" gradientUnits="userSpaceOnUse" x1="3540.4639" y1="2839.106" x2="4589.2598" y2="3396.1714" gradientTransform="matrix(-0.9981 -0.0611 -0.0611 0.9981 6180.0625 49.9065)">
							<stop  offset="0" style="stop-color:#311944"/>
							<stop  offset="1" style="stop-color:#6B3976"/>
						</linearGradient>
						<path style="fill:url(#SVGID_00000019640990495269873990000003268168797235916713_);" d="M2419.138,2784
							c51.969,45.525-56.509,194.822-229.799,146.431c-209.996-58.641-477.066-32.289-657.098,114.292
							c-10.444-9.29-36.312-23.87-24.482-35.832c162.633-164.457,313.267-258.867,438.037-284.2
							C2134.428,2686.393,2271.166,2654.373,2419.138,2784z"/>
						<g style="opacity:0.24;">
							<path style="fill:#552D63;" d="M1809.908,2846.529c-30.464,17.72-36.958-18.284-52.674-41.969
								c67.46-41.421,130.81-68.144,188.562-79.869c188.632-38.299,325.37-70.318,473.343,59.308
								c51.968,45.524-56.509,194.822-229.8,146.431c-62.674-17.501-130.463-27.239-199.474-28.662
								C1934.356,2866.863,1888.938,2786.768,1809.908,2846.529z"/>
						</g>
					</g>
				</g>
				<g>
					
						<linearGradient id="SVGID_00000022559711278001157210000017964527947891076008_" gradientUnits="userSpaceOnUse" x1="3143.333" y1="3088.6587" x2="4094.3494" y2="2911.9673" gradientTransform="matrix(-0.9981 -0.0611 -0.0611 0.9981 6180.0625 49.9065)">
						<stop  offset="0" style="stop-color:#311944"/>
						<stop  offset="1" style="stop-color:#893976"/>
					</linearGradient>
					<path style="fill:url(#SVGID_00000022559711278001157210000017964527947891076008_);" d="M2449.811,2939.52l10.667,4.076
						c0,0,69.001-65.146,81.299-81.747c15.005-20.256-153.959-71.906-208.827-139.479c-57.654-71.005-12.104,84.298-12.104,84.298
						L2449.811,2939.52z"/>
				</g>
				
					<linearGradient id="SVGID_00000148646818382348897890000014394606746916743828_" gradientUnits="userSpaceOnUse" x1="2253.24" y1="2459.229" x2="2303.7549" y2="2490.2268">
					<stop  offset="0" style="stop-color:#FF9085"/>
					<stop  offset="1" style="stop-color:#FB6FBB"/>
				</linearGradient>
				<path style="fill:url(#SVGID_00000148646818382348897890000014394606746916743828_);" d="M2512.386,2300.357
					c0,0-61.256,8.397-128.425,127.503c-32.578,57.768-86.701,152.267-152.004,204.905
					c-35.927,28.959-105.681,38.212-105.681,38.212l-7.899,23.389l175.769,14.024l41.963-51.774l88.8-188.935L2512.386,2300.357z"/>
				<g>
					
						<linearGradient id="SVGID_00000010989429959224106500000008646972831394576786_" gradientUnits="userSpaceOnUse" x1="3484.7195" y1="2817.2131" x2="3061.5056" y2="4355.7158" gradientTransform="matrix(-0.9981 -0.0611 -0.0611 0.9981 6180.0625 49.9065)">
						<stop  offset="0" style="stop-color:#FF9085"/>
						<stop  offset="1" style="stop-color:#FB6FBB"/>
					</linearGradient>
					<path style="fill:url(#SVGID_00000010989429959224106500000008646972831394576786_);" d="M2631.159,2292.762
						c0,0,150.997,18.623,154.24,192.369c2.993,160.34-54.857,222.46-196.807,356.157c-14.273,13.443-37.421,13.449-39.135,15.382
						c-9.221,10.4-18.569,21.236-28.014,32.57c-127.039-121.914-270.284-163.201-270.284-163.201s132.479-274.072,190.691-364.92
						C2501.868,2267.45,2592.392,2283.445,2631.159,2292.762z"/>
					<g style="opacity:0.3;">
						
							<linearGradient id="SVGID_00000143611126086267095790000017658990379874989202_" gradientUnits="userSpaceOnUse" x1="3541.5642" y1="2989.781" x2="3437.6279" y2="2583.2737" gradientTransform="matrix(-0.9981 -0.0611 -0.0611 0.9981 6180.0625 49.9065)">
							<stop  offset="0" style="stop-color:#FF9085"/>
							<stop  offset="1" style="stop-color:#FB6FBB"/>
						</linearGradient>
						<path style="fill:url(#SVGID_00000143611126086267095790000017658990379874989202_);" d="M2380.462,2697.512
							c63.739,34.103,154.075,30.247,187.297-11.958c25.018-31.784,29.072-43.628,59.529-93.541
							c24.501-40.154,36.429-46.591,89.963-80.397c20.203-12.758,43.133-31.224,65.617-58.903
							c1.42,10.169,2.316,20.933,2.531,32.417c2.993,160.341-54.858,222.461-196.806,356.158
							c-14.273,13.443-37.421,13.448-39.136,15.381c-9.221,10.401-18.568,21.235-28.014,32.57
							c-127.039-121.914-270.284-163.201-270.284-163.201s21.985-43.107,51.104-103.719
							C2323.382,2657.705,2339.572,2675.634,2380.462,2697.512z"/>
					</g>
				</g>
				
					<linearGradient id="SVGID_00000106849546812252450690000004874759745213270194_" gradientUnits="userSpaceOnUse" x1="2553.7217" y1="2322.4248" x2="2670.686" y2="2322.4248">
					<stop  offset="0" style="stop-color:#FF9085"/>
					<stop  offset="1" style="stop-color:#FB6FBB"/>
				</linearGradient>
				<path style="fill:url(#SVGID_00000106849546812252450690000004874759745213270194_);" d="M2596.025,2350.214
					c35.895,0,72.36-26.579,74.108-27.87c0.605-0.446,0.734-1.3,0.286-1.905c-0.448-0.608-1.302-0.731-1.904-0.286
					c-0.482,0.355-48.415,35.305-87.214,25.603c-10.75-2.684-18.107-7.944-21.869-15.631c-7.165-14.631,0.954-33.395,1.035-33.581
					c0.303-0.689-0.009-1.493-0.696-1.797c-0.701-0.298-1.496,0.012-1.797,0.695c-0.361,0.815-8.706,20.12-0.993,35.88
					c4.135,8.441,12.094,14.186,23.656,17.075C2585.685,2349.66,2590.849,2350.214,2596.025,2350.214z"/>
				
					<linearGradient id="SVGID_00000088120297447710938420000007326508881459059132_" gradientUnits="userSpaceOnUse" x1="2283.3281" y1="2773.8799" x2="2544.0229" y2="2773.8799">
					<stop  offset="0" style="stop-color:#FF9085"/>
					<stop  offset="1" style="stop-color:#FB6FBB"/>
				</linearGradient>
				<path style="fill:url(#SVGID_00000088120297447710938420000007326508881459059132_);" d="M2542.66,2851.118
					c0.374,0,0.743-0.154,1.011-0.451c0.506-0.557,0.46-1.42-0.099-1.923c-1.352-1.219-136.525-122.218-258.556-152.056
					c-0.747-0.199-1.469,0.273-1.649,0.999c-0.177,0.731,0.271,1.468,0.999,1.649c121.364,29.672,256.034,150.217,257.383,151.429
					C2542.007,2851,2542.336,2851.118,2542.66,2851.118z"/>
				<g>
					<path style="fill:#FFFFFF;" d="M2615.868,2229.777c0,0,26.241,49.208,30.47,59.412c4.231,10.204-9.135,24.116-35.548,29.475
						c-26.413,5.359-5.501-53.729-5.501-53.729L2615.868,2229.777z"/>
					
						<linearGradient id="SVGID_00000077284987793679681020000013210732391391413679_" gradientUnits="userSpaceOnUse" x1="-5480.6543" y1="1859.5293" x2="-5570.1479" y2="1632.2325" gradientTransform="matrix(0.9513 -0.3081 0.3081 0.9513 7340.3228 -1106.0099)">
						<stop  offset="0" style="stop-color:#311944"/>
						<stop  offset="1" style="stop-color:#6B3976"/>
					</linearGradient>
					<path style="fill:url(#SVGID_00000077284987793679681020000013210732391391413679_);" d="M2555.092,2242.825
						c-29.465-10.477-39.921-79.979-25.429-87.701c8.323-4.435,16.057,16.27,47.072,24.037c24.154,6.049,39.453-1.503,49.819,10.496
						c4.87,5.637,7.817,14.624,7.792,22.588c-0.012,4.102-0.989,9.566-3.692,20.315c-2.398,9.538-2.142,9.148-2.923,11.951
						c-1.876,6.737-5.985,18.435-15.766,33.887c-2.214-3.565-5.219-7.892-9.199-12.347c-1.531-1.713-7.612-8.377-15.055-13.114
						C2574.159,2244.312,2563.541,2245.829,2555.092,2242.825z"/>
					<path style="fill:#FFFFFF;" d="M2625.619,2261.688c0,0-6.205,26.458-33.534,33.497c-24.468,6.302-45.607-46.27-34.047-62.692
						c3.857-5.479,13.562-10.412,22.64-10.811c5.362-0.236,7.694,1.26,16.447,0.705c8.074-0.512,9.906-2.027,12.771-0.874
						c3.586,1.443,7.546,6.564,8.01,23.81c3.051-6.128,7.954-9.705,12.444-9.145c0.716,0.089,2.729,0.669,4.211,2.061
						C2639.923,2243.275,2636.892,2252.95,2625.619,2261.688z"/>
				</g>
				<g>
					
						<linearGradient id="SVGID_00000038398739482826154580000016811387478041916571_" gradientUnits="userSpaceOnUse" x1="2847.6304" y1="3832.0044" x2="3017.1096" y2="3832.0044" gradientTransform="matrix(-0.9263 -0.3767 -0.3767 0.9263 5897.2134 267.383)">
						<stop  offset="0" style="stop-color:#AB316D"/>
						<stop  offset="1" style="stop-color:#792D3D"/>
					</linearGradient>
					<path style="fill:url(#SVGID_00000038398739482826154580000016811387478041916571_);" d="M1816.996,2741.482
						c4.191-14.553,13.454-30.634-19.608-42.367c-24-8.518-65.693-11.255-103.586-13.198c-53.101-2.723-65.314,29.046,12.289,49.258
						C1756.912,2748.41,1811.036,2762.175,1816.996,2741.482z"/>
					<path style="fill:#FFFFFF;" d="M1775.621,2719.202c-0.499,8.143,4.687,14.534,11.457,15.501
						c15.712,2.244,12.764-5.844,13.263-13.988c0.499-8.143,6.852-13.798-11.457-15.501
						C1782.074,2704.581,1776.12,2711.059,1775.621,2719.202z"/>
					
						<linearGradient id="SVGID_00000143610282372203796520000013239927377134892722_" gradientUnits="userSpaceOnUse" x1="3455.5039" y1="2997.751" x2="4237.3364" y2="2921.531" gradientTransform="matrix(-0.9981 -0.0611 -0.0611 0.9981 6180.0625 49.9065)">
						<stop  offset="0" style="stop-color:#311944"/>
						<stop  offset="1" style="stop-color:#6B3976"/>
					</linearGradient>
					<path style="fill:url(#SVGID_00000143610282372203796520000013239927377134892722_);" d="M1936.852,2672.368l-15.51-2.444
						c0,0-30.214,2.825-113.477,25.783c-17.825,2.958-42.126,54.979,10.103,57.021s115.795,40.934,115.795,40.934L1936.852,2672.368
						z"/>
					
						<linearGradient id="SVGID_00000134971749466479886790000004933155392617242273_" gradientUnits="userSpaceOnUse" x1="3154.8992" y1="3150.9055" x2="4105.9204" y2="2974.2131" gradientTransform="matrix(-0.9981 -0.0611 -0.0611 0.9981 6180.0625 49.9065)">
						<stop  offset="0" style="stop-color:#311944"/>
						<stop  offset="1" style="stop-color:#893976"/>
					</linearGradient>
					<path style="fill:url(#SVGID_00000134971749466479886790000004933155392617242273_);" d="M2479.117,2914.415
						c0,0-7.605,67.507-164.579,61.364c-156.974-6.143-437.397-169.098-435.631-254.607s106.117-51.35,214.16-1.924
						c91.194,41.718,232.06,65.879,260.93,70.359C2390.958,2795.342,2488.045,2881.988,2479.117,2914.415z"/>
					<g style="opacity:0.2;">
						
							<linearGradient id="SVGID_00000128481499022654406670000006969954693175551126_" gradientUnits="userSpaceOnUse" x1="3494.1147" y1="3026.9595" x2="4069.4792" y2="2903.988" gradientTransform="matrix(-0.9981 -0.0611 -0.0611 0.9981 6180.0625 49.9065)">
							<stop  offset="0" style="stop-color:#311944"/>
							<stop  offset="1" style="stop-color:#6B3976"/>
						</linearGradient>
						<path style="fill:url(#SVGID_00000128481499022654406670000006969954693175551126_);" d="M2273.727,2829.813
							c-72.66-7.403-88.975-59.545-179.39-74.622c-58.592-9.77-79.283,7.535-109.15-12.469
							c-23.578-15.791-35.613-43.324-41.407-73.227c40.07,3.397,94.153,24.53,149.287,49.752
							c88.574,40.519,224.005,64.476,258.167,69.925c1.011,0.161,23.913-8.029,23.913-8.029s17.048,9.741,29.273,17.432
							C2356.787,2824.107,2300.264,2832.517,2273.727,2829.813z"/>
					</g>
				</g>
				<path style="fill:#D5DBE2;" d="M2399.636,2697.879l-53.136-233.607c-1.519-6.675-7.63-11.282-14.465-10.905l-130.466,7.211
					c-9.048,0.5-15.26,9.314-12.687,18.004l59.86,202.197c1.485,5.015,5.634,8.79,10.768,9.793l123.74,24.198
					C2393.213,2716.72,2401.888,2707.778,2399.636,2697.879z"/>
				<path style="opacity:0.3;fill:#D5DBE2;" d="M2244.065,2514.753c-17.34-17.999-18.533-38.139-13.8-55.76l-28.695,1.586
					c-9.048,0.5-15.26,9.314-12.687,18.004l59.86,202.197c1.485,5.015,5.634,8.79,10.768,9.793l91.104,17.816
					C2370.759,2592.73,2282.525,2554.671,2244.065,2514.753z"/>
				<path style="fill:#FFFFFF;" d="M2484.574,2702.613c0,0-28.616,1.321-48.941-6.866c-20.324-8.187-18.651-10.066-42.044-13.037
					c-22.739-2.887-67.527-16.384-42.17-39.447c28.224-25.671,76.604-18.474,90.506-1.431c13.4,16.428,36.628,26.86,36.628,26.86
					L2484.574,2702.613z"/>
				
					<linearGradient id="SVGID_00000049219382573076624030000010197271851854321796_" gradientUnits="userSpaceOnUse" x1="3379.425" y1="2788.2488" x2="2956.2122" y2="4326.7485" gradientTransform="matrix(-0.9981 -0.0611 -0.0611 0.9981 6180.0625 49.9065)">
					<stop  offset="0" style="stop-color:#FF9085"/>
					<stop  offset="1" style="stop-color:#FB6FBB"/>
				</linearGradient>
				<path style="fill:url(#SVGID_00000049219382573076624030000010197271851854321796_);" d="M2739.812,2379.367
					c0,0,83.862,9.764,34.927,279.816c-25.38,140.062-150.837,120.344-302.329,62.472c-10.256-21.453,2.942-66.925,2.942-66.925
					s188.213,77.604,193.083-35.611C2673.896,2492.186,2690.883,2365.958,2739.812,2379.367z"/>
				<path style="fill:#D5DBE2;" d="M2126.276,2670.977c0,0-31.525-7.285-59.389-2.067c-27.864,5.218-46.319,20.031-46.319,20.031
					s18.644,12.467,38.641,13.751c19.997,1.285,59.168-8.326,59.168-8.326L2126.276,2670.977z"/>
			</g>
		</g>
	</g>
</g>
</svg>
