<?xml version="1.0" encoding="utf-8"?>
<!-- Generator: Adobe Illustrator 27.5.0, SVG Export Plug-In . SVG Version: 6.00 Build 0)  -->
<svg version="1.1" xmlns="http://www.w3.org/2000/svg" xmlns:xlink="http://www.w3.org/1999/xlink" x="0px" y="0px"
	 viewBox="0 0 2475 1650" style="enable-background:new 0 0 2475 1650;" xml:space="preserve">
<g id="Background">
	<rect style="fill:#FFFFFF;" width="2475" height="1650"/>
</g>
<g id="Illustration">
	<linearGradient id="SVGID_1_" gradientUnits="userSpaceOnUse" x1="162.0466" y1="840.6446" x2="2175.8062" y2="840.6446">
		<stop  offset="0" style="stop-color:#DAE3FE"/>
		<stop  offset="1" style="stop-color:#E9EFFD"/>
	</linearGradient>
	<path style="fill:url(#SVGID_1_);" d="M520.139,271.7c-156.203,129.095,52.604,294.802-55.571,367.14
		s-556.181,213.421-105.023,493.308s463.551,465.341,785.621,288.123s298.936-209.063,563.975-89.259s542.057-66.59,447.871-287.808
		s-154.154-218.46-46.605-359.734c107.549-141.273-60.64-532.213-430.856-230.091s-601.944,76.564-642.595-36.427
		C996.305,303.961,766.99,67.687,520.139,271.7z"/>
	<g>
		<path style="fill:#91B3FA;" d="M1843.059,1486.102c0,0,75.743-325.421,268.938-556.259
			c35.493-42.409,104.327-17.695,104.598,37.606C2217.382,1128.249,2166.146,1391.281,1843.059,1486.102z"/>
		<path style="fill:#DCE5FE;" d="M2167.959,964.118c-5.741,24.453-13.199,48.295-21.219,72.002
			c-8.156,23.647-17.041,47.055-26.787,70.113c-19.459,46.125-41.789,91.108-67.318,134.278
			c-12.834,21.536-26.192,42.786-40.627,63.312c-7.063,10.366-14.692,20.342-22.093,30.464c-7.725,9.89-15.32,19.876-23.498,29.403
			c-31.953,38.675-67.831,74.205-107.24,105.048c-1.175,0.919-2.873,0.712-3.793-0.463c-0.866-1.106-0.732-2.675,0.266-3.622
			l0.032-0.03c36.121-34.072,69.59-70.6,99.802-109.73c7.716-9.647,14.827-19.766,22.281-29.609
			c7.081-10.126,14.383-20.089,21.127-30.447c3.379-5.173,6.953-10.209,10.26-15.43l10.03-15.585
			c3.306-5.219,6.475-10.527,9.718-15.785c3.269-5.243,6.392-10.577,9.488-15.927c6.35-10.605,12.395-21.391,18.478-32.156
			c5.899-10.87,11.796-21.74,17.446-32.747c11.524-21.898,22.217-44.228,32.681-66.678c10.329-22.51,20.223-45.242,29.515-68.232
			c9.392-22.936,18.196-46.204,26.243-69.601l0.026-0.073c0.485-1.41,2.021-2.161,3.432-1.676
			C2167.529,961.4,2168.268,962.787,2167.959,964.118z"/>
	</g>
	<g>
		<path style="fill:#BDD0FB;" d="M1912.131,1462.279c0,0,158.604-227.911,335.859-285.987
			c43.945-14.398,81.705,33.945,57.271,73.206C2255.646,1329.223,2145.855,1439.021,1912.131,1462.279z"/>
		<path style="fill:#DCE5FE;" d="M2288.431,1211.228c-13.602,12.375-27.545,24.22-41.658,35.921
			c-7.117,5.766-14.237,11.532-21.418,17.221c-7.237,5.615-14.402,11.326-21.7,16.863c-29.131,22.228-59.044,43.435-89.634,63.616
			c-15.195,10.245-30.858,19.77-46.342,29.568l-23.621,14.062c-3.942,2.334-7.863,4.705-11.844,6.974l-12.019,6.67
			c-31.803,18.241-64.814,34.272-98.013,49.759c-1.158,0.54-2.534,0.04-3.074-1.118c-0.532-1.141-0.053-2.495,1.069-3.05
			l0.063-0.031l24.55-12.129l12.271-6.062c4.06-2.08,8.059-4.284,12.091-6.42l24.182-12.83c7.984-4.417,15.885-8.988,23.83-13.474
			l11.902-6.758l11.746-7.029l23.478-14.08c15.391-9.811,30.958-19.345,46.062-29.6c15.277-9.989,30.264-20.412,45.259-30.82
			l22.25-15.96l22.011-16.287c7.332-5.438,14.531-11.05,21.803-16.567c7.215-5.59,14.371-11.257,21.525-16.926
			c14.25-11.39,28.428-22.951,42.115-34.934l0.034-0.03c0.961-0.842,2.422-0.745,3.264,0.217
			C2289.446,1208.942,2289.36,1210.381,2288.431,1211.228z"/>
	</g>
	<g>
		<path style="fill:#BDD0FB;" d="M724.854,1352.939c-72.334,14.463-164.708-64.399-194.466-150.554
			c-30.624-88.661,25.526-125.803,25.092-248.833c-0.492-139.758-73.192-160.821-121.28-349.203
			c-10.849-42.503-73.635-288.463,4.182-334.565c71.95-42.627,274.051,79.708,309.473,236.287
			c25.258,111.648-52.822,158.526-23.002,288.563c26.166,114.099,94.933,115.75,121.28,225.832
			C878.21,1154.481,819.83,1333.95,724.854,1352.939z"/>
		<path style="fill:#DCE5FE;" d="M719.601,1386.798c19.499-150.578-18.541-382.884-53.886-551.25
			c-38.267-182.284-81.699-330.97-82.133-332.452l-6.02,1.766c0.434,1.478,43.807,149.967,82.023,332.019
			c35.24,167.876,73.179,399.414,53.793,549.112L719.601,1386.798z"/>
	</g>
	<g>
		<path style="fill:#91B3FA;" d="M654.745,1407.766c94.884-49.439,127.362-219.207,73.426-274.382
			c-36.443-37.281-88.705,1.932-139.123-36.713c-64.373-49.341-17.019-142.269-67.629-262.789
			c-43.07-102.563-146.381-199.614-206.753-179.701c-63.195,20.845-96.48,175.506-42.51,268.585
			c35.098,60.531,88.823,63.503,100.478,119.801c13.524,65.324-51.815,95.115-52.171,158.446
			C319.823,1314.775,529.221,1473.17,654.745,1407.766z"/>
		<path style="fill:#DCE5FE;" d="M603.543,1451.243c0.566,0,1.141-0.125,1.684-0.389c1.921-0.932,2.722-3.244,1.79-5.164
			c-125.791-259.205-162.676-559.906-163.035-562.913c-0.252-2.12-2.177-3.635-4.294-3.38c-2.119,0.252-3.633,2.175-3.381,4.294
			c0.36,3.02,37.404,305.013,163.756,565.373C600.732,1450.441,602.109,1451.243,603.543,1451.243z"/>
		<path style="fill:#DCE5FE;" d="M345.466,960.651c0.397,0,0.797-0.128,1.135-0.39c0.804-0.628,0.949-1.787,0.322-2.592
			c-39.705-50.966-83.711-127.534-67.87-202.885c9.434-44.875,35.989-68.281,36.256-68.511c0.771-0.667,0.856-1.832,0.189-2.604
			c-0.668-0.772-1.835-0.857-2.605-0.188c-1.129,0.976-27.766,24.46-37.453,70.544c-8.904,42.354-4.236,112.459,68.57,205.913
			C344.372,960.405,344.917,960.651,345.466,960.651z"/>
		<path style="fill:#F0F0F0;" d="M663.3,1385.13c0.589,0,1.168-0.281,1.525-0.802c61.019-89.054,81.827-157.865,61.845-204.519
			c-17.765-41.479-62.622-49.198-63.073-49.272c-1.009-0.157-1.954,0.521-2.118,1.528c-0.163,1.005,0.519,1.955,1.526,2.119
			c0.431,0.07,43.35,7.51,60.289,47.124c19.418,45.416-1.279,113.019-61.515,200.931c-0.577,0.842-0.363,1.991,0.479,2.568
			C662.577,1385.026,662.94,1385.13,663.3,1385.13z"/>
	</g>
	<g>
		<g>
			
				<linearGradient id="SVGID_00000044887318295628175920000008875037911930797241_" gradientUnits="userSpaceOnUse" x1="1168.4744" y1="1400.5348" x2="1477.0927" y2="474.6772">
				<stop  offset="0" style="stop-color:#09005D"/>
				<stop  offset="1" style="stop-color:#1A0F91"/>
			</linearGradient>
			<path style="fill:url(#SVGID_00000044887318295628175920000008875037911930797241_);" d="M1965.352,1434.122
				c0,13.278-10.874,24.141-24.165,24.141H634.47c-13.29,0-24.164-10.864-24.164-24.141l-10.873-750.934
				c0-13.278,15.643-39.199,44.313-37.251l1277.068-33.044c16.676-0.432,32.799,5.987,44.608,17.757
				c11.809,11.77,18.27,27.863,17.876,44.523L1965.352,1434.122z"/>
			
				<linearGradient id="SVGID_00000020389489608927090450000011330828418299392903_" gradientUnits="userSpaceOnUse" x1="747.5234" y1="1469.0625" x2="1806.6298" y2="670.9832">
				<stop  offset="0" style="stop-color:#4042E2"/>
				<stop  offset="1" style="stop-color:#4F52FF"/>
			</linearGradient>
			<path style="fill:url(#SVGID_00000020389489608927090450000011330828418299392903_);" d="M1941.495,1410.962
				c0,12.573-10.288,22.861-22.861,22.861H665.982c-12.574,0-22.861-10.288-22.861-22.861l-10.26-681.705
				c1.208-41.023,37.175-55.768,58.977-54.897l1223.953-32.837c11.715-0.314,23.042,4.2,31.34,12.476s12.862,19.603,12.568,31.319
				L1941.495,1410.962z"/>
			<g>
				<path style="fill:#BDD0FB;" d="M656.658,1085.599c-1.007,0-1.831-0.81-1.846-1.82L654,1028.493
					c-0.014-1.019,0.8-1.859,1.82-1.874c0.975,0.065,1.859,0.801,1.874,1.82l0.812,55.286c0.014,1.019-0.8,1.859-1.82,1.874
					C656.677,1085.599,656.668,1085.599,656.658,1085.599z"/>
				<path style="fill:#BDD0FB;" d="M654.669,950.122c-1.007,0-1.831-0.81-1.846-1.82l-3.109-211.742
					c0.064-14.142,4.421-25.438,12.949-33.61c15.515-14.867,39.798-14.124,40.822-14.08l390.863-10.489
					c1.044-0.05,1.868,0.776,1.896,1.796c0.028,1.02-0.776,1.869-1.796,1.896l-390.97,10.489
					c-1.092-0.031-23.86-0.741-38.259,13.055c-7.778,7.452-11.751,17.857-11.811,30.924l3.109,211.707
					c0.014,1.019-0.8,1.859-1.82,1.874C654.688,950.122,654.678,950.122,654.669,950.122z"/>
			</g>
		</g>
		
			<linearGradient id="SVGID_00000132072718284683240220000010715949580270352033_" gradientUnits="userSpaceOnUse" x1="1886.1089" y1="1321.2952" x2="512.9446" y2="1655.308">
			<stop  offset="0" style="stop-color:#09005D"/>
			<stop  offset="1" style="stop-color:#1A0F91"/>
		</linearGradient>
		<path style="fill:url(#SVGID_00000132072718284683240220000010715949580270352033_);" d="M2063.854,1496.591H538.296
			c-4.128,0-7.505-3.377-7.505-7.505v-50.97c0-4.128,3.377-7.505,7.505-7.505h1525.558c4.128,0,7.505,3.377,7.505,7.505v50.97
			C2071.359,1493.213,2067.981,1496.591,2063.854,1496.591z"/>
	</g>
	
		<linearGradient id="SVGID_00000067941640367344659240000017094024866687147654_" gradientUnits="userSpaceOnUse" x1="1316.5908" y1="462.7724" x2="1126.1077" y2="1705.3081">
		<stop  offset="0" style="stop-color:#FE7062"/>
		<stop  offset="1" style="stop-color:#FF928E"/>
	</linearGradient>
	<path style="fill:url(#SVGID_00000067941640367344659240000017094024866687147654_);" d="M1583.258,368.392l-720.288-4.41
		c-23.672-0.145-42.604,19.628-41.432,43.271l49.554,1023.358h801.546l44.505-914.315L1583.258,368.392z"/>
	
		<linearGradient id="SVGID_00000058555707791242770990000004962546439224837037_" gradientUnits="userSpaceOnUse" x1="1693.6903" y1="384.1364" x2="1599.6904" y2="508.1362">
		<stop  offset="0" style="stop-color:#FE7062"/>
		<stop  offset="1" style="stop-color:#FF928E"/>
	</linearGradient>
	<path style="fill:url(#SVGID_00000058555707791242770990000004962546439224837037_);" d="M1613.209,511.912
		c-23.463-0.826-41.502-21.048-39.652-44.452l7.722-97.719l136.007,145.955L1613.209,511.912z"/>
	<path style="opacity:0.84;fill:#FFFFFF;" d="M1541.51,498.538h-387.845c-11.22,0-20.316,9.096-20.316,20.316
		c0,11.22,9.096,20.316,20.316,20.316h387.845c11.22,0,20.316-9.096,20.316-20.316
		C1561.825,507.633,1552.73,498.538,1541.51,498.538z"/>
	<path style="opacity:0.84;fill:#FFFFFF;" d="M1553.825,590.882h-399.547c-11.558,0-20.929,9.096-20.929,20.316
		c0,11.22,9.37,20.316,20.929,20.316h399.547c11.558,0,20.929-9.096,20.929-20.316
		C1574.754,599.977,1565.383,590.882,1553.825,590.882z"/>
	<path style="opacity:0.84;fill:#FFFFFF;" d="M1553.825,670.298h-399.547c-11.558,0-20.929,9.095-20.929,20.316
		c0,11.22,9.37,20.316,20.929,20.316h399.547c11.558,0,20.929-9.096,20.929-20.316
		C1574.754,679.393,1565.383,670.298,1553.825,670.298z"/>
	<path style="opacity:0.84;fill:#FFFFFF;" d="M1553.825,749.714h-399.547c-11.558,0-20.929,9.095-20.929,20.316
		c0,11.22,9.37,20.316,20.929,20.316h399.547c11.558,0,20.929-9.096,20.929-20.316
		C1574.754,758.809,1565.383,749.714,1553.825,749.714z"/>
	<path style="opacity:0.84;fill:#FFFFFF;" d="M1544.28,873.455H962.513c-16.83,0-30.474,9.096-30.474,20.316
		c0,11.22,13.643,20.316,30.474,20.316h581.768c16.83,0,30.473-9.096,30.473-20.316
		C1574.754,882.55,1561.11,873.455,1544.28,873.455z"/>
	<path style="opacity:0.84;fill:#FFFFFF;" d="M1544.28,952.87H962.513c-16.83,0-30.474,9.096-30.474,20.316
		c0,11.22,13.643,20.316,30.474,20.316h581.768c16.83,0,30.473-9.096,30.473-20.316C1574.754,961.966,1561.11,952.87,1544.28,952.87
		z"/>
	<path style="opacity:0.84;fill:#FFFFFF;" d="M1544.28,1032.286H962.513c-16.83,0-30.474,9.096-30.474,20.316
		c0,11.22,13.643,20.316,30.474,20.316h581.768c16.83,0,30.473-9.096,30.473-20.316
		C1574.754,1041.382,1561.11,1032.286,1544.28,1032.286z"/>
	<path style="opacity:0.84;fill:#FFFFFF;" d="M1544.28,1156.027H962.513c-16.83,0-30.474,9.096-30.474,20.316
		c0,11.22,13.643,20.316,30.474,20.316h581.768c16.83,0,30.473-9.095,30.473-20.316
		C1574.754,1165.123,1561.11,1156.027,1544.28,1156.027z"/>
	<path style="opacity:0.84;fill:#FFFFFF;" d="M1544.28,1235.443H962.513c-16.83,0-30.474,9.096-30.474,20.316
		c0,11.22,13.643,20.316,30.474,20.316h581.768c16.83,0,30.473-9.095,30.473-20.316
		C1574.754,1244.539,1561.11,1235.443,1544.28,1235.443z"/>
	<path style="opacity:0.84;fill:#FFFFFF;" d="M1544.28,1314.859H962.513c-16.83,0-30.474,9.096-30.474,20.316
		c0,11.22,13.643,20.316,30.474,20.316h581.768c16.83,0,30.473-9.095,30.473-20.316
		C1574.754,1323.955,1561.11,1314.859,1544.28,1314.859z"/>
	<g>
		<path style="fill:#7D97F4;" d="M1050.623,790.345H769.129c-21.208,0-38.401-17.192-38.401-38.4V496.307
			c0-21.208,17.193-38.4,38.401-38.4h281.494c21.208,0,38.401,17.192,38.401,38.4v255.638
			C1089.024,773.153,1071.831,790.345,1050.623,790.345z"/>
		<g>
			<path style="fill:#FFFFFF;" d="M1015.158,752.282h-30.133c-6.614,0-12.469-4.275-14.483-10.575l-12.351-38.626
				c-1.466-4.585-5.728-7.696-10.541-7.696h-74.779c-4.825,0-9.094,3.126-10.551,7.726l-12.207,38.555
				c-2.001,6.321-7.867,10.616-14.497,10.616h-29.574c-10.555,0-17.899-10.489-14.289-20.407l76.431-209.968
				c5.55-15.246,20.042-25.393,36.266-25.393h14.053c16.329,0,30.891,10.276,36.363,25.661l74.617,209.805
				C1033.006,741.88,1025.665,752.282,1015.158,752.282z M938.613,638.28l-24.001-78.841c-1.473-4.839-8.34-4.79-9.732,0.074
				c-6.318,22.073-17.744,59.195-23.795,78.728c-1.987,6.414,2.81,12.91,9.525,12.91h38.467
				C935.771,651.152,940.563,644.684,938.613,638.28z"/>
		</g>
		<path style="fill:#BDD0FB;" d="M754.738,676.762h-1.847V521.99c0-20.06,16.32-36.38,36.38-36.38h66.122v1.847h-66.122
			c-19.042,0-34.534,15.492-34.534,34.533V676.762z"/>
	</g>
	<g>
		<g>
			
				<linearGradient id="SVGID_00000065755952224501845980000010449819291853015462_" gradientUnits="userSpaceOnUse" x1="778.6666" y1="1264.4348" x2="877.9059" y2="1264.4348" gradientTransform="matrix(1 0 0 1 -142.465 0)">
				<stop  offset="0" style="stop-color:#FE7062"/>
				<stop  offset="1" style="stop-color:#FF928E"/>
			</linearGradient>
			<path style="fill:url(#SVGID_00000065755952224501845980000010449819291853015462_);" d="M729.78,1502.218
				c-2.709,0-5.101-1.744-5.567-4.21l-87.932-465.468c-0.519-2.75,1.555-5.355,4.633-5.819c3.079-0.46,5.995,1.389,6.515,4.139
				l87.932,465.467c0.519,2.75-1.555,5.356-4.633,5.819C730.409,1502.195,730.092,1502.218,729.78,1502.218z"/>
			
				<linearGradient id="SVGID_00000113354671537187282040000009921464805494823845_" gradientUnits="userSpaceOnUse" x1="569.9373" y1="1267.4611" x2="684.9019" y2="1267.4611" gradientTransform="matrix(1 0 0 1 -142.465 0)">
				<stop  offset="0" style="stop-color:#FE7062"/>
				<stop  offset="1" style="stop-color:#FF928E"/>
			</linearGradient>
			<path style="fill:url(#SVGID_00000113354671537187282040000009921464805494823845_);" d="M433.132,1502.22
				c-0.37,0-0.746-0.033-1.123-0.102c-3.061-0.551-5.042-3.214-4.425-5.947l103.656-459.412c0.617-2.734,3.593-4.517,6.659-3.952
				c3.061,0.551,5.041,3.214,4.425,5.947l-103.656,459.412C438.127,1500.563,435.768,1502.22,433.132,1502.22z"/>
			
				<linearGradient id="SVGID_00000178186652979087696150000001250034323347713685_" gradientUnits="userSpaceOnUse" x1="649.2335" y1="1142.5214" x2="810.8034" y2="1142.5214" gradientTransform="matrix(1 0 0 1 -142.465 0)">
				<stop  offset="0" style="stop-color:#FE7062"/>
				<stop  offset="1" style="stop-color:#FF928E"/>
			</linearGradient>
			<path style="fill:url(#SVGID_00000178186652979087696150000001250034323347713685_);" d="M662.685,1147.571H512.421
				c-3.122,0-5.653-2.26-5.653-5.05c0-2.789,2.531-5.05,5.653-5.05h150.264c3.122,0,5.653,2.26,5.653,5.05
				C668.338,1145.311,665.807,1147.571,662.685,1147.571z"/>
			
				<linearGradient id="SVGID_00000051385776009359603440000006663867556950463897_" gradientUnits="userSpaceOnUse" x1="652.1671" y1="1142.5214" x2="807.8739" y2="1142.5214" gradientTransform="matrix(1 0 0 1 -142.465 0)">
				<stop  offset="0" style="stop-color:#FE7062"/>
				<stop  offset="1" style="stop-color:#FF928E"/>
			</linearGradient>
			<path style="fill:url(#SVGID_00000051385776009359603440000006663867556950463897_);" d="M659.961,1147.571H515.15
				c-3.009,0-5.448-2.26-5.448-5.05c0-2.789,2.439-5.05,5.448-5.05h144.811c3.009,0,5.448,2.26,5.448,5.05
				C665.409,1145.311,662.97,1147.571,659.961,1147.571z"/>
			
				<linearGradient id="SVGID_00000100352521144085857050000014779990228112338347_" gradientUnits="userSpaceOnUse" x1="649.2335" y1="1226.6844" x2="810.8034" y2="1226.6844" gradientTransform="matrix(1 0 0 1 -142.465 0)">
				<stop  offset="0" style="stop-color:#FE7062"/>
				<stop  offset="1" style="stop-color:#FF928E"/>
			</linearGradient>
			<path style="fill:url(#SVGID_00000100352521144085857050000014779990228112338347_);" d="M662.685,1231.734H512.421
				c-3.122,0-5.653-2.26-5.653-5.05c0-2.789,2.531-5.05,5.653-5.05h150.264c3.122,0,5.653,2.26,5.653,5.05
				C668.338,1229.474,665.807,1231.734,662.685,1231.734z"/>
			
				<linearGradient id="SVGID_00000082347578003730021080000006350510194501467566_" gradientUnits="userSpaceOnUse" x1="630.9671" y1="1226.6844" x2="824.4475" y2="1226.6844" gradientTransform="matrix(1 0 0 1 -142.465 0)">
				<stop  offset="0" style="stop-color:#FE7062"/>
				<stop  offset="1" style="stop-color:#FF928E"/>
			</linearGradient>
			<path style="fill:url(#SVGID_00000082347578003730021080000006350510194501467566_);" d="M676.33,1231.734H494.155
				c-3.122,0-5.653-2.26-5.653-5.05c0-2.789,2.531-5.05,5.653-5.05H676.33c3.122,0,5.653,2.26,5.653,5.05
				C681.982,1229.474,679.451,1231.734,676.33,1231.734z"/>
			
				<linearGradient id="SVGID_00000127029112958071711280000000499212550704793224_" gradientUnits="userSpaceOnUse" x1="649.2335" y1="1310.8474" x2="810.8034" y2="1310.8474" gradientTransform="matrix(1 0 0 1 -142.465 0)">
				<stop  offset="0" style="stop-color:#FE7062"/>
				<stop  offset="1" style="stop-color:#FF928E"/>
			</linearGradient>
			<path style="fill:url(#SVGID_00000127029112958071711280000000499212550704793224_);" d="M662.685,1315.897H512.421
				c-3.122,0-5.653-2.26-5.653-5.05c0-2.79,2.531-5.05,5.653-5.05h150.264c3.122,0,5.653,2.26,5.653,5.05
				C668.338,1313.637,665.807,1315.897,662.685,1315.897z"/>
			
				<linearGradient id="SVGID_00000156553677054842390600000010527787863663504558_" gradientUnits="userSpaceOnUse" x1="612.4802" y1="1310.8474" x2="841.848" y2="1310.8474" gradientTransform="matrix(1 0 0 1 -142.465 0)">
				<stop  offset="0" style="stop-color:#FE7062"/>
				<stop  offset="1" style="stop-color:#FF928E"/>
			</linearGradient>
			<path style="fill:url(#SVGID_00000156553677054842390600000010527787863663504558_);" d="M693.73,1315.897H475.668
				c-3.122,0-5.653-2.26-5.653-5.05c0-2.79,2.531-5.05,5.653-5.05H693.73c3.122,0,5.653,2.26,5.653,5.05
				C699.383,1313.637,696.852,1315.897,693.73,1315.897z"/>
			
				<linearGradient id="SVGID_00000134966428470297896860000014965368050734060955_" gradientUnits="userSpaceOnUse" x1="594.9499" y1="1395.0105" x2="810.8034" y2="1395.0105" gradientTransform="matrix(1 0 0 1 -142.465 0)">
				<stop  offset="0" style="stop-color:#FE7062"/>
				<stop  offset="1" style="stop-color:#FF928E"/>
			</linearGradient>
			<path style="fill:url(#SVGID_00000134966428470297896860000014965368050734060955_);" d="M662.685,1400.06H458.138
				c-3.122,0-5.653-2.26-5.653-5.05c0-2.79,2.531-5.05,5.653-5.05h204.548c3.122,0,5.653,2.26,5.653,5.05
				C668.338,1397.8,665.807,1400.06,662.685,1400.06z"/>
			
				<linearGradient id="SVGID_00000158006467013513748090000006275071226839008172_" gradientUnits="userSpaceOnUse" x1="594.9499" y1="1395.0105" x2="855.9231" y2="1395.0105" gradientTransform="matrix(1 0 0 1 -142.465 0)">
				<stop  offset="0" style="stop-color:#FE7062"/>
				<stop  offset="1" style="stop-color:#FF928E"/>
			</linearGradient>
			<path style="fill:url(#SVGID_00000158006467013513748090000006275071226839008172_);" d="M707.805,1400.06H458.138
				c-3.122,0-5.653-2.26-5.653-5.05c0-2.79,2.531-5.05,5.653-5.05h249.668c3.122,0,5.653,2.26,5.653,5.05
				C713.458,1397.8,710.927,1400.06,707.805,1400.06z"/>
		</g>
		<g>
			
				<linearGradient id="SVGID_00000115504571296274833080000011121624233177878418_" gradientUnits="userSpaceOnUse" x1="665.3717" y1="1129.142" x2="698.373" y2="1129.142" gradientTransform="matrix(1 0 0 1 -142.465 0)">
				<stop  offset="0" style="stop-color:#09005D"/>
				<stop  offset="1" style="stop-color:#1A0F91"/>
			</linearGradient>
			<path style="fill:url(#SVGID_00000115504571296274833080000011121624233177878418_);" d="M527.501,1117.513
				c0,0-3.667,5.78-4.59,21.964c-0.086,1.508,1.108,2.793,2.619,2.793h28.681c1.154,0,1.978-1.131,1.608-2.225
				c-1.681-4.974-6.762-17.102-18.101-24.032L527.501,1117.513z"/>
			
				<linearGradient id="SVGID_00000083789346449018128920000002681033300530331797_" gradientUnits="userSpaceOnUse" x1="668.7194" y1="1113.8066" x2="682.1035" y2="1113.8066" gradientTransform="matrix(1 0 0 1 -142.465 0)">
				<stop  offset="0" style="stop-color:#FF928E"/>
				<stop  offset="1" style="stop-color:#FEB3B1"/>
			</linearGradient>
			<path style="fill:url(#SVGID_00000083789346449018128920000002681033300530331797_);" d="M526.254,1106.547l1.622,13.602
				c0.14,1.173,1.06,2.113,2.234,2.248c1.568,0.181,3.849,0.308,6.065-0.058c2.014-0.332,3.464-2.126,3.464-4.168v-13.133
				L526.254,1106.547z"/>
			
				<linearGradient id="SVGID_00000172419516458344304460000014335489773352215211_" gradientUnits="userSpaceOnUse" x1="735.5526" y1="1128.6144" x2="787.3328" y2="1128.6144" gradientTransform="matrix(1 0 0 1 -142.465 0)">
				<stop  offset="0" style="stop-color:#09005D"/>
				<stop  offset="1" style="stop-color:#1A0F91"/>
			</linearGradient>
			<path style="fill:url(#SVGID_00000172419516458344304460000014335489773352215211_);" d="M598.461,1116.014
				c0,0-5.49,8.533-5.372,20.245c0.028,2.759,2.337,4.956,5.096,4.956h44.544c2.086,0,2.932-2.68,1.226-3.879
				c-8.429-5.919-24.996-16.976-36.978-21.322H598.461z"/>
			
				<linearGradient id="SVGID_00000003090221081744794470000014635055474295121807_" gradientUnits="userSpaceOnUse" x1="736.3394" y1="1107.8636" x2="749.6497" y2="1107.8636" gradientTransform="matrix(1 0 0 1 -142.465 0)">
				<stop  offset="0" style="stop-color:#FF928E"/>
				<stop  offset="1" style="stop-color:#FEB3B1"/>
			</linearGradient>
			<path style="fill:url(#SVGID_00000003090221081744794470000014635055474295121807_);" d="M593.874,1101.324l3.46,16.799
				c0.387,1.879,2.225,3.143,4.097,2.725c1.138-0.254,2.481-0.741,3.916-1.638c1.364-0.853,2.055-2.475,1.776-4.058l-3.579-20.352
				L593.874,1101.324z"/>
			
				<linearGradient id="SVGID_00000025443945757082207810000013789966367110702769_" gradientUnits="userSpaceOnUse" x1="559.9871" y1="1288.0818" x2="563.9871" y2="946.0818">
				<stop  offset="0" style="stop-color:#09005D"/>
				<stop  offset="1" style="stop-color:#1A0F91"/>
			</linearGradient>
			<path style="fill:url(#SVGID_00000025443945757082207810000013789966367110702769_);" d="M532.61,867.761
				c0,0-12.031,10.606-14.295,23.367c-2.264,12.761,6.415,220.17,6.415,220.17s12.03,2.002,18.232-1.756
				c0,0,7.355-134.607,12.946-165.712c0,0,29.32,139.435,37.445,164.629c0,0,11.59,1.41,15.327-0.795
				c0,0-7.68-180.747-17.331-212.881L532.61,867.761z"/>
			
				<linearGradient id="SVGID_00000096758635156468014160000017578025942132520878_" gradientUnits="userSpaceOnUse" x1="538.0219" y1="924.8074" x2="556.9435" y2="924.8074">
				<stop  offset="0" style="stop-color:#4042E2"/>
				<stop  offset="1" style="stop-color:#4F52FF"/>
			</linearGradient>
			<path style="fill:url(#SVGID_00000096758635156468014160000017578025942132520878_);" d="M555.557,939.535
				c-0.615,0-1.177-0.413-1.339-1.035l-4.974-19.08l-10.584-6.789c-0.644-0.413-0.831-1.27-0.418-1.914
				c0.413-0.642,1.272-0.832,1.914-0.417l11.041,7.081c0.293,0.188,0.505,0.478,0.593,0.815l5.11,19.603
				c0.193,0.741-0.251,1.497-0.991,1.69C555.791,939.52,555.673,939.535,555.557,939.535z"/>
			
				<linearGradient id="SVGID_00000183248016116529141000000014747836137381253815_" gradientUnits="userSpaceOnUse" x1="651.1533" y1="721.5439" x2="673.8201" y2="624.8774">
				<stop  offset="0" style="stop-color:#FE7062"/>
				<stop  offset="1" style="stop-color:#FF928E"/>
			</linearGradient>
			<path style="fill:url(#SVGID_00000183248016116529141000000014747836137381253815_);" d="M651.333,747.916
				c-50.645-4.204-63.882,6.276-63.882,6.276l24.338,38.423c0,0,49.764-0.983,85.422-28.466
				c-6.674-7.187-11.308-15.13-14.281-21.314C673.735,746.656,663.146,748.897,651.333,747.916z"/>
			
				<linearGradient id="SVGID_00000140003037699555896810000011246330799092252593_" gradientUnits="userSpaceOnUse" x1="769.6998" y1="593.8807" x2="690.0068" y2="768.5924">
				<stop  offset="0" style="stop-color:#FF928E"/>
				<stop  offset="1" style="stop-color:#FEB3B1"/>
			</linearGradient>
			<path style="fill:url(#SVGID_00000140003037699555896810000011246330799092252593_);" d="M730.642,673.576
				c-0.068-1.623-2.268-2.065-2.957-0.594l-6.462,13.79c-1.249,2.664-1.649,5.648-1.147,8.547l2.267,8.026
				c0.678,3.914-0.344,7.925-2.826,11.027c-5.938,7.423-18.584,20.981-36.588,28.462c2.972,6.184,7.607,14.127,14.281,21.314
				c13.083-10.084,24.271-23.731,30.4-42.213c2.937-0.902,4.899-3.667,4.782-6.737L730.642,673.576z"/>
			
				<linearGradient id="SVGID_00000028300747969925079160000016147600364472340919_" gradientUnits="userSpaceOnUse" x1="898.5643" y1="551.0569" x2="563.5568" y2="872.1055">
				<stop  offset="0" style="stop-color:#E1473D"/>
				<stop  offset="1" style="stop-color:#E9605A"/>
			</linearGradient>
			<path style="fill:url(#SVGID_00000028300747969925079160000016147600364472340919_);" d="M668.003,770.193
				c-17.829-19.212-51.789-27.891-71.451-31.457c-8.614-1.562-17.105,3.231-20.157,11.436
				c-8.848,23.786-32.913,85.667-37.578,96.303c-3.827,8.725-7.822,17.247-10.361,22.575c-1.517,3.183-0.192,6.991,2.985,8.522
				c16.542,7.974,46.309,16.995,58.377,20.514c2.654,0.774,5.298-1.219,5.298-3.984c0-2.345,0.637-4.646,1.844-6.657l45.703-76.161
				c28.486,31.585,53.433,34.474,72.597,27.56c-3.222-9.959-5.331-19.936-6.342-29.932
				C680.605,804.063,668.003,770.193,668.003,770.193z"/>
			
				<linearGradient id="SVGID_00000087410317824828235920000011337072313429951164_" gradientUnits="userSpaceOnUse" x1="952.0156" y1="729.0291" x2="812.0157" y2="872.0292" gradientTransform="matrix(1 0 0 1 -142.465 0)">
				<stop  offset="0" style="stop-color:#FF928E"/>
				<stop  offset="1" style="stop-color:#FEB3B1"/>
			</linearGradient>
			<path style="fill:url(#SVGID_00000087410317824828235920000011337072313429951164_);" d="M755.711,803.613l-5.109-6.812
				c-16.541,11.36-30.367,14.052-41.685,12.113c1.011,9.996,3.12,19.973,6.342,29.932
				C740.505,829.737,755.711,803.613,755.711,803.613z"/>
			
				<linearGradient id="SVGID_00000041297668982399979820000007236288823119442844_" gradientUnits="userSpaceOnUse" x1="967.0082" y1="743.7073" x2="827.0084" y2="886.7075" gradientTransform="matrix(1 0 0 1 -142.465 0)">
				<stop  offset="0" style="stop-color:#FF928E"/>
				<stop  offset="1" style="stop-color:#FEB3B1"/>
			</linearGradient>
			<path style="fill:url(#SVGID_00000041297668982399979820000007236288823119442844_);" d="M752.109,803.736l28.785,1.122
				l26.502-14.802c-3.804-2.385-25.316,2.49-25.316,2.49s-22.489-3.401-28.575-3.409c-5.055-0.007-4.333,7.263-3.943,9.727
				c0.079,0.503,0.145,0.805,0.145,0.805L752.109,803.736z"/>
			
				<linearGradient id="SVGID_00000155855825937884790480000006668843260682817713_" gradientUnits="userSpaceOnUse" x1="817.1589" y1="648.5378" x2="713.6381" y2="838.7469" gradientTransform="matrix(1 0 0 1 -142.465 0)">
				<stop  offset="0" style="stop-color:#FF928E"/>
				<stop  offset="1" style="stop-color:#FEB3B1"/>
			</linearGradient>
			<path style="fill:url(#SVGID_00000155855825937884790480000006668843260682817713_);" d="M623.596,703.453l-15.187,37.06
				c0,0,17.45,12.078,31.49,10.929l7.58-33.324L623.596,703.453z"/>
			<g>
				
					<linearGradient id="SVGID_00000133511199676416987880000002266655371868026760_" gradientUnits="userSpaceOnUse" x1="368.9035" y1="3512.5024" x2="323.1534" y2="3573.0261" gradientTransform="matrix(0.817 -0.5767 0.5767 0.817 -1684.986 -1973.3862)">
					<stop  offset="0" style="stop-color:#FF928E"/>
					<stop  offset="1" style="stop-color:#FEB3B1"/>
				</linearGradient>
				<path style="fill:url(#SVGID_00000133511199676416987880000002266655371868026760_);" d="M649.251,678.188
					c0.348,0.493,10.987,38.928,10.987,38.928l-22.075,5.608l-15.496-34.931C622.667,687.794,643.428,669.938,649.251,678.188z"/>
				
					<linearGradient id="SVGID_00000085950763917194122320000003096117125576723349_" gradientUnits="userSpaceOnUse" x1="-1778.8016" y1="628.7038" x2="-1773.6943" y2="817.6719" gradientTransform="matrix(-1 0 0 1 -1139.0533 0)">
					<stop  offset="0" style="stop-color:#E1473D"/>
					<stop  offset="1" style="stop-color:#E9605A"/>
				</linearGradient>
				<path style="fill:url(#SVGID_00000085950763917194122320000003096117125576723349_);" d="M630.979,693.101l6.718,19.027
					c0.086,0.244,0.201,0.47,0.35,0.681c0.912,1.295,4.375,5.521,8.482,1.715c3.727-3.454,7.18-6.551,10.369-7.113
					c1.432-0.253,2.819,0.621,3.206,2.023c0.966,3.492,2.996,11.402,3.712,18.544c0.145,1.449-0.855,2.759-2.286,3.031
					c-4.311,0.819-13.453,2.291-21.085,1.753c-1.034-0.073-1.944-0.693-2.376-1.636c-2.103-4.596-8.547-18.54-10.944-22.148
					c-2.249-3.386-7.764-3.291-10.077-3.086c-0.758,0.067-1.504-0.177-2.076-0.679c-2.023-1.774-5.874-6.301-0.457-11.722
					c1.134-1.135,1.103-2.965-0.065-4.063c-2.326-2.187-4.814-6.066-0.938-10.877c3.939-4.89,9.139-4.112,12.325-2.949
					c1.288,0.47,2.693-0.074,3.394-1.253c0.399-0.671,1.094-1.179,2.3-1.075c1.625,0.14,2.991-1.216,2.962-2.847
					c-0.056-3.133,1.065-7.091,6.5-8.782c9.643-3.001,15.657,6.315,16.253,13.267c0.596,6.952-10.044,9.611-16.301,9.142
					c-4.757-0.356-8.289,4.359-9.709,6.639C630.786,691.412,630.696,692.298,630.979,693.101z"/>
				
					<linearGradient id="SVGID_00000158725143807593384330000012271860175694700166_" gradientUnits="userSpaceOnUse" x1="301.8975" y1="3560.4321" x2="338.5929" y2="3522.7837" gradientTransform="matrix(0.817 -0.5767 0.5767 0.817 -1684.986 -1973.3862)">
					<stop  offset="0" style="stop-color:#FF928E"/>
					<stop  offset="1" style="stop-color:#FEB3B1"/>
				</linearGradient>
				<path style="fill:url(#SVGID_00000158725143807593384330000012271860175694700166_);" d="M629.642,715.88
					c0,0-1.558-12.068-6.578-12.66c-5.02-0.591-9.907,3.535-4.916,10.309C624.356,721.955,629.642,715.88,629.642,715.88z"/>
			</g>
		</g>
	</g>
	<g>
		
			<linearGradient id="SVGID_00000126285266022911155820000013449069022744085391_" gradientUnits="userSpaceOnUse" x1="1909.4207" y1="616.3756" x2="1948.7126" y2="657.4139">
			<stop  offset="0" style="stop-color:#09005D"/>
			<stop  offset="1" style="stop-color:#1A0F91"/>
		</linearGradient>
		<path style="fill:url(#SVGID_00000126285266022911155820000013449069022744085391_);" d="M1898.469,595.181
			c0,0-10.839,0.573-12.167,22.872c0,0,25.133,22.53,59.082,27.893c2.549,0.403-3.563-17.398-4.482-19.81
			C1936.529,614.663,1922.761,607.274,1898.469,595.181z"/>
		
			<linearGradient id="SVGID_00000164476443698468909960000012781524798680303005_" gradientUnits="userSpaceOnUse" x1="1848.7751" y1="575.6679" x2="1889.6864" y2="421.569">
			<stop  offset="0" style="stop-color:#4042E2"/>
			<stop  offset="1" style="stop-color:#4F52FF"/>
		</linearGradient>
		<path style="fill:url(#SVGID_00000164476443698468909960000012781524798680303005_);" d="M1776.405,568.962h22.872
			c0,0,70.2-77.529,116.242-85.351c0,0,32.05,40.911-1.707,117.353c-2.715,6.149-10.31,8.881-15.976,5.263
			c-1.695-1.082-2.911-2.532-3.65-4.351l2.715-65.269c0,0-59.881,52.373-70.289,62.479
			C1816.203,609.193,1763.297,603.033,1776.405,568.962z"/>
		
			<linearGradient id="SVGID_00000140706190379357521620000015774896729293153421_" gradientUnits="userSpaceOnUse" x1="1961.5438" y1="719.382" x2="2035.8662" y2="773.9305">
			<stop  offset="0" style="stop-color:#09005D"/>
			<stop  offset="1" style="stop-color:#1A0F91"/>
		</linearGradient>
		<path style="fill:url(#SVGID_00000140706190379357521620000015774896729293153421_);" d="M1997.528,731.739
			c-9.585-8.398-24.856-17.823-46.902-20.525l-7.456,4.56c0,0,4.754,7.013,13.44,14.42c7.983,4.636,20.308,10.916,30.527,12.277
			C1997.072,743.795,1998.537,737.792,1997.528,731.739z"/>
		<path style="fill:#7D97F4;" d="M1940.901,626.136c-5.905,1.911-8.502,10.277-23.485,4.745
			c-14.496-5.352-25.271-12.254-30.816-16.235c-0.124,1.079-0.228,2.205-0.3,3.407c0,0,26.5,25.206,60.449,30.568
			c2.549,0.403,4.569-2.141,3.65-4.553C1948.752,639.742,1945.779,633.18,1940.901,626.136z"/>
		<path style="fill:#7D97F4;" d="M2004.748,738.911c-1.889-2.147-4.301-4.614-7.22-7.172c1.009,6.053-0.456,12.056-10.391,10.733
			c-10.219-1.361-22.545-7.641-30.527-12.277c10.005,8.533,25.227,17.589,44.441,17.057
			C2005.317,747.134,2007.568,742.116,2004.748,738.911z"/>
		
			<linearGradient id="SVGID_00000010300864566859291200000015842298108669745343_" gradientUnits="userSpaceOnUse" x1="1841.9503" y1="683.9448" x2="1819.7964" y2="947.575">
			<stop  offset="0" style="stop-color:#4042E2"/>
			<stop  offset="1" style="stop-color:#4F52FF"/>
		</linearGradient>
		<path style="fill:url(#SVGID_00000010300864566859291200000015842298108669745343_);" d="M1777.241,585.511l107.108,1.16
			c0,0,61.166,50.606,72.261,127.773c0,0,1.842,5.675-9.215,6.646c0,0-36.981-24.153-61.094-66.855
			c-29.566-52.359-77.131-33.668-77.131-33.668c-57.701,19.669-77.457-9.536-77.938-16.446L1777.241,585.511z"/>
		
			<linearGradient id="SVGID_00000165947727423975657290000008582220579540998788_" gradientUnits="userSpaceOnUse" x1="1812.1178" y1="567.5513" x2="1787.7511" y2="665.7569">
			<stop  offset="0" style="stop-color:#FF928E"/>
			<stop  offset="1" style="stop-color:#FEB3B1"/>
		</linearGradient>
		<path style="fill:url(#SVGID_00000165947727423975657290000008582220579540998788_);" d="M1779.771,499.231
			c0,0,11.53,57.785,68.026,80.645l20.096-2.368l4.742,7.561l-47.139,1.502c0,0-40.294-15.959-61.642-59.447
			C1763.148,525.686,1751.392,501.413,1779.771,499.231z"/>
		
			<linearGradient id="SVGID_00000031201463974956251770000016462946505729377172_" gradientUnits="userSpaceOnUse" x1="1783.6454" y1="453.0433" x2="1527.7344" y2="787.6955">
			<stop  offset="0" style="stop-color:#09005D"/>
			<stop  offset="1" style="stop-color:#1A0F91"/>
		</linearGradient>
		<path style="fill:url(#SVGID_00000031201463974956251770000016462946505729377172_);" d="M1785.95,584.567
			c0,0-13.112-35.642-15.93-70.274c0,0,9.592-8.244,15.588-11.8c1.942-1.152,2.675-3.588,1.693-5.621
			c-4.408-9.132-31.066-44.988-33.062-45.486c-10.854-2.709-55.367-23.874-86.717,19.009c-13.454,18.404,2.67,75.057,63.71,133.727
			l2.026,0.388c6.843,1.309,13.928,0.269,20.106-2.952L1785.95,584.567z"/>
		
			<linearGradient id="SVGID_00000039130609762112612660000014329231728152459172_" gradientUnits="userSpaceOnUse" x1="1782.6324" y1="572.3782" x2="1883.4888" y2="434.4014">
			<stop  offset="0" style="stop-color:#FF928E"/>
			<stop  offset="1" style="stop-color:#FEB3B1"/>
		</linearGradient>
		<path style="fill:url(#SVGID_00000039130609762112612660000014329231728152459172_);" d="M1735.426,522.102
			c0,0,36.429,43.134,83.004,49.44c0,0,12.037-10.974,20.987-7.056c8.951,3.918,21.223,21.211,21.223,21.211h-59.802
			c0,0-56.545-1.992-84.8-36.281C1718.311,537.418,1725.12,530.251,1735.426,522.102z"/>
		
			<linearGradient id="SVGID_00000163047329815869386910000014009845556600246444_" gradientUnits="userSpaceOnUse" x1="1730.0785" y1="426.3648" x2="1687.2522" y2="525.3083">
			<stop  offset="0" style="stop-color:#FF928E"/>
			<stop  offset="1" style="stop-color:#FEB3B1"/>
		</linearGradient>
		<path style="fill:url(#SVGID_00000163047329815869386910000014009845556600246444_);" d="M1714.174,421.131l-7.971,26.584
			c-0.365,1.218,0.086,2.537,1.135,3.256c3.838,2.628,13.867,7.855,27.626,2.776c1.574-0.581,2.652-2.051,2.788-3.722l1.89-23.159
			L1714.174,421.131z"/>
		<g>
			
				<linearGradient id="SVGID_00000012430394954020051000000010967084899573554611_" gradientUnits="userSpaceOnUse" x1="1734.5062" y1="357.2047" x2="1734.5062" y2="446.549">
				<stop  offset="0" style="stop-color:#FF928E"/>
				<stop  offset="1" style="stop-color:#FEB3B1"/>
			</linearGradient>
			<path style="fill:url(#SVGID_00000012430394954020051000000010967084899573554611_);" d="M1760.847,399.602
				c0,0-3.919,27.558-14.505,36.032c-10.586,8.475-31.211,2.094-38.177-18.682l13.88-35.521L1760.847,399.602z"/>
			
				<linearGradient id="SVGID_00000009578510422306123000000014241368251830893482_" gradientUnits="userSpaceOnUse" x1="1725.9742" y1="329.7068" x2="1741.1981" y2="416.5389">
				<stop  offset="0" style="stop-color:#09005D"/>
				<stop  offset="1" style="stop-color:#1A0F91"/>
			</linearGradient>
			<path style="fill:url(#SVGID_00000009578510422306123000000014241368251830893482_);" d="M1720.482,404.417
				c0.805,0.259,1.648-0.257,1.774-1.093c0.382-2.544,1.336-7.578,3.267-11.007c0,0-1.01-3.616,9.137,1.846
				c10.148,5.462,25.389,13.485,34.362,8.707c8.749-4.658,17.611-28.101-5.511-23.757c-0.88,0.165-1.689-0.536-1.623-1.428
				c0.284-3.853-0.098-12.717-9.074-15.562c-8.4-2.662-12.998,1.129-14.893,3.418c-0.557,0.673-1.592,0.66-2.124-0.034
				c-2.516-3.285-9.35-10.277-19.409-5.844c-8.286,3.652-9.574,8.755-9.438,11.936c0.044,1.03-1.001,1.729-1.938,1.297
				c-2.538-1.169-6.619-1.776-10.529,3.123c-5.406,6.773,2.319,12.646,4.636,14.186c0.38,0.252,0.616,0.67,0.619,1.126
				c0.022,3.522,0.57,18.886,8.271,27.553c0.667,0.75,1.899,0.53,2.288-0.395l5.929-14.127c0.275-0.656,1.007-0.992,1.684-0.774
				L1720.482,404.417z"/>
			
				<linearGradient id="SVGID_00000175287561670250899450000014635628357224878982_" gradientUnits="userSpaceOnUse" x1="1715.0476" y1="357.2047" x2="1715.0476" y2="446.549">
				<stop  offset="0" style="stop-color:#FF928E"/>
				<stop  offset="1" style="stop-color:#FEB3B1"/>
			</linearGradient>
			<path style="fill:url(#SVGID_00000175287561670250899450000014635628357224878982_);" d="M1720.607,407.285
				c0,0-3.621-14.746-9.12-9.959c-5.5,4.788,1.434,15.326,7.734,17.334L1720.607,407.285z"/>
		</g>
		
			<linearGradient id="SVGID_00000146461862947345262270000009240454241961033357_" gradientUnits="userSpaceOnUse" x1="1857.6295" y1="541.1613" x2="1934.376" y2="541.1613">
			<stop  offset="0" style="stop-color:#09005D"/>
			<stop  offset="1" style="stop-color:#1A0F91"/>
		</linearGradient>
		<path style="fill:url(#SVGID_00000146461862947345262270000009240454241961033357_);" d="M1857.63,589.045l26.851-89.545
			c1.095-3.653,4.341-6.245,8.146-6.505l36.252-2.48c3.685-0.252,6.426,3.348,5.203,6.833l-30.017,85.515
			c-0.967,2.755-3.44,4.702-6.345,4.995l-35.699,3.964L1857.63,589.045z"/>
		
			<linearGradient id="SVGID_00000037660251323972346000000004508587184341840551_" gradientUnits="userSpaceOnUse" x1="1866.9443" y1="574.7092" x2="1805.5774" y2="591.5282">
			<stop  offset="0" style="stop-color:#09005D"/>
			<stop  offset="1" style="stop-color:#1A0F91"/>
		</linearGradient>
		<path style="fill:url(#SVGID_00000037660251323972346000000004508587184341840551_);" d="M1862.02,591.821
			c-0.058,0-0.117-0.001-0.175-0.005l-76.067-3.845c-1.88-0.094-3.328-1.696-3.233-3.576c0.095-1.881,1.703-3.359,3.577-3.233
			l76.067,3.845c1.88,0.095,3.328,1.696,3.233,3.576C1865.329,590.405,1863.823,591.821,1862.02,591.821z"/>
		
			<linearGradient id="SVGID_00000120556115594833903410000000758701016657873809_" gradientUnits="userSpaceOnUse" x1="1817.968" y1="408.7771" x2="1726.5992" y2="564.2402">
			<stop  offset="0" style="stop-color:#4042E2"/>
			<stop  offset="1" style="stop-color:#4F52FF"/>
		</linearGradient>
		<path style="fill:url(#SVGID_00000120556115594833903410000000758701016657873809_);" d="M1770.02,514.975c0,0-0.001,0-0.003,0
			c-0.375-0.001-0.68-0.308-0.679-0.685c0.052-15.884-6.078-36.965-6.139-37.177c-0.106-0.361,0.101-0.741,0.462-0.846
			c0.366-0.108,0.74,0.101,0.846,0.462c0.063,0.213,6.249,21.485,6.195,37.566C1770.7,514.672,1770.395,514.975,1770.02,514.975z"/>
		
			<linearGradient id="SVGID_00000135691621182236243010000017244558885774085282_" gradientUnits="userSpaceOnUse" x1="1789.9857" y1="392.3314" x2="1698.6169" y2="547.7945">
			<stop  offset="0" style="stop-color:#4042E2"/>
			<stop  offset="1" style="stop-color:#4F52FF"/>
		</linearGradient>
		<path style="fill:url(#SVGID_00000135691621182236243010000017244558885774085282_);" d="M1735.426,522.784
			c-0.201,0-0.401-0.089-0.535-0.26c-0.168-0.212-16.809-21.369-22.535-35.875c-0.139-0.35,0.033-0.746,0.384-0.884
			c0.348-0.141,0.747,0.033,0.884,0.384c5.652,14.32,22.171,35.321,22.337,35.531c0.233,0.296,0.182,0.724-0.113,0.958
			C1735.723,522.737,1735.574,522.784,1735.426,522.784z"/>
		
			<linearGradient id="SVGID_00000080205199035386884940000000941641262977383087_" gradientUnits="userSpaceOnUse" x1="1779.8579" y1="386.3793" x2="1688.4899" y2="541.8412">
			<stop  offset="0" style="stop-color:#4042E2"/>
			<stop  offset="1" style="stop-color:#4F52FF"/>
		</linearGradient>
		<path style="fill:url(#SVGID_00000080205199035386884940000000941641262977383087_);" d="M1712.042,555.139l-0.507-0.217
			c-24.095-10.317-38.974-39.077-39.121-39.366c-0.172-0.336-0.037-0.747,0.297-0.918c0.338-0.168,0.747-0.039,0.918,0.297
			c0.144,0.284,14.6,28.21,37.939,38.513l2.442-3.452c0.22-0.308,0.646-0.378,0.951-0.162c0.308,0.217,0.38,0.643,0.162,0.951
			L1712.042,555.139z"/>
	</g>
	<g>
		<path style="fill:#91B3FA;" d="M1491.317,1136.016c0,0-2.12-255.204,188.21-274.341c190.33-19.136,308.554,63.474,249.442,137.599
			c-59.112,74.125-147.995,139.967-227.295,86.731C1622.375,1032.768,1539.406,1032.414,1491.317,1136.016z"/>
		
			<linearGradient id="SVGID_00000088842318774124962440000005632796265898352777_" gradientUnits="userSpaceOnUse" x1="1823.9846" y1="963.3586" x2="1854.3096" y2="963.3586">
			<stop  offset="0" style="stop-color:#DAE3FE"/>
			<stop  offset="1" style="stop-color:#E9EFFD"/>
		</linearGradient>
		<path style="fill:url(#SVGID_00000088842318774124962440000005632796265898352777_);" d="M1852.46,972.817
			c-0.336,0-0.677-0.092-0.983-0.285c-8.655-5.452-17.567-10.546-26.491-15.141c-0.906-0.465-1.263-1.58-0.796-2.487
			c0.468-0.906,1.582-1.266,2.487-0.795c9.019,4.642,18.025,9.79,26.77,15.3c0.863,0.543,1.122,1.683,0.578,2.547
			C1853.673,972.512,1853.074,972.817,1852.46,972.817z"/>
		
			<linearGradient id="SVGID_00000171711550693791446930000008701273552710393986_" gradientUnits="userSpaceOnUse" x1="1717.573" y1="934.5475" x2="1809.3459" y2="934.5475">
			<stop  offset="0" style="stop-color:#DAE3FE"/>
			<stop  offset="1" style="stop-color:#E9EFFD"/>
		</linearGradient>
		<path style="fill:url(#SVGID_00000171711550693791446930000008701273552710393986_);" d="M1807.498,948.834
			c-0.249,0-0.502-0.05-0.745-0.157c-28.204-12.454-57.668-20.777-87.575-24.74c-1.011-0.133-1.722-1.062-1.588-2.074
			c0.133-1.008,1.073-1.715,2.073-1.587c30.254,4.008,60.058,12.427,88.582,25.021c0.933,0.413,1.355,1.502,0.944,2.437
			C1808.883,948.423,1808.207,948.834,1807.498,948.834z"/>
		
			<linearGradient id="SVGID_00000139255189853156405070000005325143378828170911_" gradientUnits="userSpaceOnUse" x1="1617.2476" y1="922.7297" x2="1696.905" y2="922.7297">
			<stop  offset="0" style="stop-color:#DAE3FE"/>
			<stop  offset="1" style="stop-color:#E9EFFD"/>
		</linearGradient>
		<path style="fill:url(#SVGID_00000139255189853156405070000005325143378828170911_);" d="M1619.094,927.999
			c-0.83,0-1.583-0.563-1.792-1.403c-0.245-0.99,0.359-1.991,1.349-2.236c0.333-0.083,33.76-8.224,76.472-6.711
			c1.019,0.036,1.817,0.891,1.781,1.91c-0.035,1.019-0.863,1.888-1.911,1.78c-42.167-1.472-75.127,6.526-75.454,6.607
			C1619.39,927.981,1619.24,927.999,1619.094,927.999z"/>
		
			<linearGradient id="SVGID_00000067197971175899865950000004803519281291844502_" gradientUnits="userSpaceOnUse" x1="1772.5824" y1="982.436" x2="1815.8864" y2="982.436">
			<stop  offset="0" style="stop-color:#DAE3FE"/>
			<stop  offset="1" style="stop-color:#E9EFFD"/>
		</linearGradient>
		<path style="fill:url(#SVGID_00000067197971175899865950000004803519281291844502_);" d="M1814.037,993.556
			c-0.341,0-0.685-0.094-0.993-0.29c-11.391-7.285-24.579-13.458-39.201-18.352c-0.967-0.323-1.489-1.371-1.165-2.337
			c0.325-0.965,1.366-1.488,2.337-1.165c14.909,4.989,28.372,11.294,40.018,18.741c0.859,0.55,1.111,1.692,0.561,2.552
			C1815.243,993.255,1814.646,993.556,1814.037,993.556z"/>
		
			<linearGradient id="SVGID_00000170962126191620971520000013315710384552060036_" gradientUnits="userSpaceOnUse" x1="1619.9576" y1="962.1354" x2="1747.7216" y2="962.1354">
			<stop  offset="0" style="stop-color:#DAE3FE"/>
			<stop  offset="1" style="stop-color:#E9EFFD"/>
		</linearGradient>
		<path style="fill:url(#SVGID_00000170962126191620971520000013315710384552060036_);" d="M1745.876,967.388
			c-0.124,0-0.249-0.013-0.375-0.038c-61.226-12.647-122.809-3.741-123.424-3.649c-1.008,0.13-1.949-0.547-2.099-1.555
			c-0.15-1.01,0.547-1.95,1.556-2.099c0.62-0.092,62.854-9.092,124.714,3.685c0.999,0.207,1.641,1.183,1.436,2.182
			C1747.503,966.787,1746.734,967.388,1745.876,967.388z"/>
		
			<linearGradient id="SVGID_00000031918147222108425110000010473280218205442211_" gradientUnits="userSpaceOnUse" x1="1795.6106" y1="1030.7354" x2="1829.2032" y2="1030.7354">
			<stop  offset="0" style="stop-color:#DAE3FE"/>
			<stop  offset="1" style="stop-color:#E9EFFD"/>
		</linearGradient>
		<path style="fill:url(#SVGID_00000031918147222108425110000010473280218205442211_);" d="M1827.354,1041.216
			c-0.386,0-0.775-0.121-1.107-0.37c-8.526-6.406-18.464-12.145-29.538-17.055c-0.932-0.413-1.354-1.504-0.94-2.437
			c0.413-0.932,1.504-1.356,2.437-0.94c11.33,5.023,21.511,10.903,30.259,17.477c0.816,0.613,0.98,1.771,0.367,2.586
			C1828.47,1040.962,1827.915,1041.216,1827.354,1041.216z"/>
		
			<linearGradient id="SVGID_00000143579248249905904760000017542353264998218392_" gradientUnits="userSpaceOnUse" x1="1687.0828" y1="1006.9453" x2="1778.6855" y2="1006.9453">
			<stop  offset="0" style="stop-color:#DAE3FE"/>
			<stop  offset="1" style="stop-color:#E9EFFD"/>
		</linearGradient>
		<path style="fill:url(#SVGID_00000143579248249905904760000017542353264998218392_);" d="M1776.838,1016.13
			c-0.188,0-0.379-0.029-0.566-0.088c-24.914-8.033-54.331-12.941-87.435-14.589c-1.019-0.05-1.804-0.918-1.752-1.937
			c0.051-1.017,0.935-1.791,1.936-1.753c33.426,1.665,63.163,6.632,88.383,14.762c0.971,0.314,1.504,1.354,1.191,2.325
			C1778.343,1015.632,1777.618,1016.13,1776.838,1016.13z"/>
		
			<linearGradient id="SVGID_00000096747359196060029530000009951459102411307418_" gradientUnits="userSpaceOnUse" x1="1622.6177" y1="999.8673" x2="1670.0808" y2="999.8673">
			<stop  offset="0" style="stop-color:#DAE3FE"/>
			<stop  offset="1" style="stop-color:#E9EFFD"/>
		</linearGradient>
		<path style="fill:url(#SVGID_00000096747359196060029530000009951459102411307418_);" d="M1624.463,1002.572
			c-0.932,0-1.734-0.703-1.834-1.652c-0.108-1.014,0.626-1.923,1.64-2.031c0.18-0.018,18.183-1.903,43.979-1.713
			c1.02,0.007,1.841,0.841,1.833,1.861c-0.007,1.014-0.833,1.833-1.847,1.833c-0.005,0-0.009,0-0.014,0
			c-25.6-0.173-43.385,1.674-43.56,1.692C1624.593,1002.569,1624.527,1002.572,1624.463,1002.572z"/>
	</g>
	<g>
		
			<linearGradient id="SVGID_00000049189403168775394710000004757198643838235573_" gradientUnits="userSpaceOnUse" x1="1976.8612" y1="1334.4265" x2="1961.311" y2="1437.0579">
			<stop  offset="0" style="stop-color:#020039"/>
			<stop  offset="1" style="stop-color:#090056"/>
		</linearGradient>
		<path style="fill:url(#SVGID_00000049189403168775394710000004757198643838235573_);" d="M2012.741,1342.287
			c-0.135-1.676-1.847-3.127-4.745-4.289c3.15-1.737,4.893-3.599,4.745-5.424c-0.446-5.525-17.943-8.623-39.081-6.918
			c-21.138,1.704-37.913,7.565-37.468,13.09c0.135,1.676,1.847,3.126,4.745,4.289c-3.15,1.737-4.893,3.599-4.745,5.425
			c0.135,1.676,1.847,3.126,4.745,4.289c-3.15,1.737-4.893,3.599-4.745,5.425c0.135,1.676,1.847,3.126,4.745,4.289
			c-3.15,1.737-4.893,3.599-4.745,5.424c0.197,2.444,3.734,4.411,9.441,5.699c-0.074,1.806-0.032,3.785,0.145,5.97
			c0.827,10.181,12.279,18.163,27.425,18.163c15.147,0,28.256-10.884,28.405-21.097c0.036-2.503-0.07-4.706-0.297-6.664
			c7.247-2.42,11.661-5.376,11.43-8.244c-0.135-1.676-1.847-3.126-4.745-4.289c3.15-1.737,4.893-3.599,4.745-5.425
			c-0.135-1.676-1.847-3.126-4.745-4.289C2011.146,1345.975,2012.888,1344.113,2012.741,1342.287z"/>
		<g>
			
				<linearGradient id="SVGID_00000099634415285022749700000002765146579004879273_" gradientUnits="userSpaceOnUse" x1="1970.7216" y1="1380.6409" x2="1937.5532" y2="1501.4684">
				<stop  offset="0" style="stop-color:#4042E2"/>
				<stop  offset="1" style="stop-color:#4F52FF"/>
			</linearGradient>
			<path style="fill:url(#SVGID_00000099634415285022749700000002765146579004879273_);" d="M1963.879,1375.785
				c-6.278,0-12.022-0.462-16.768-1.371c-0.275-0.052-0.456-0.319-0.403-0.594c0.053-0.275,0.318-0.456,0.594-0.403
				c7.427,1.422,17.346,1.735,27.931,0.882c8.661-0.698,16.761-2.095,23.424-4.04c0.27-0.079,0.551,0.076,0.63,0.345
				c0.078,0.269-0.076,0.551-0.345,0.63c-6.728,1.964-14.899,3.374-23.627,4.077
				C1971.382,1375.628,1967.54,1375.785,1963.879,1375.785z"/>
			
				<linearGradient id="SVGID_00000029728588388506935210000001560294715119374521_" gradientUnits="userSpaceOnUse" x1="1969.4941" y1="1380.3037" x2="1936.3259" y2="1501.1311">
				<stop  offset="0" style="stop-color:#4042E2"/>
				<stop  offset="1" style="stop-color:#4F52FF"/>
			</linearGradient>
			<path style="fill:url(#SVGID_00000029728588388506935210000001560294715119374521_);" d="M1963.984,1366.063
				c-8.157,0-15.446-0.767-20.587-2.231c-0.27-0.077-0.426-0.358-0.349-0.627c0.077-0.27,0.357-0.426,0.627-0.349
				c7.326,2.086,19.123,2.733,31.557,1.731c12.299-0.992,23.77-3.488,30.684-6.677c0.255-0.117,0.556-0.006,0.674,0.248
				c0.117,0.255,0.006,0.556-0.248,0.674c-7.017,3.236-18.616,5.766-31.028,6.766
				C1971.441,1365.91,1967.626,1366.063,1963.984,1366.063z"/>
			
				<linearGradient id="SVGID_00000045580173778397858730000016525273275729625739_" gradientUnits="userSpaceOnUse" x1="1966.4106" y1="1379.4573" x2="1933.2424" y2="1500.2847">
				<stop  offset="0" style="stop-color:#4042E2"/>
				<stop  offset="1" style="stop-color:#4F52FF"/>
			</linearGradient>
			<path style="fill:url(#SVGID_00000045580173778397858730000016525273275729625739_);" d="M1963.88,1356.356
				c-8.807,0-16.514-0.901-21.701-2.612c-0.266-0.088-0.411-0.375-0.323-0.641s0.374-0.411,0.641-0.323
				c7.219,2.38,19.456,3.162,32.736,2.091c12.298-0.991,23.769-3.487,30.684-6.677c0.255-0.117,0.556-0.006,0.674,0.248
				c0.117,0.255,0.006,0.556-0.248,0.674c-7.018,3.236-18.617,5.766-31.028,6.767
				C1971.381,1356.201,1967.536,1356.356,1963.88,1356.356z"/>
			
				<linearGradient id="SVGID_00000139258246535695368760000013935999249449643668_" gradientUnits="userSpaceOnUse" x1="1965.5847" y1="1379.2303" x2="1932.4166" y2="1500.0571">
				<stop  offset="0" style="stop-color:#4042E2"/>
				<stop  offset="1" style="stop-color:#4F52FF"/>
			</linearGradient>
			<path style="fill:url(#SVGID_00000139258246535695368760000013935999249449643668_);" d="M1963.948,1346.637
				c-6.986,0-13.34-0.565-18.279-1.662c-0.274-0.061-0.447-0.332-0.386-0.606c0.061-0.274,0.333-0.447,0.606-0.385
				c7.428,1.651,18.124,2.078,29.344,1.173c12.189-0.983,23.601-3.452,30.527-6.604c0.255-0.117,0.556-0.004,0.672,0.252
				c0.116,0.255,0.004,0.556-0.252,0.672c-7.028,3.199-18.566,5.701-30.866,6.692
				C1971.428,1346.483,1967.601,1346.637,1963.948,1346.637z"/>
		</g>
		
			<linearGradient id="SVGID_00000173858933848206062900000005017503770052243350_" gradientUnits="userSpaceOnUse" x1="1929.0784" y1="1098.4081" x2="2154.9365" y2="1514.4634">
			<stop  offset="0" style="stop-color:#FE7062"/>
			<stop  offset="1" style="stop-color:#FF928E"/>
		</linearGradient>
		<path style="fill:url(#SVGID_00000173858933848206062900000005017503770052243350_);" d="M1922.005,1293.254
			c-2.568-9.093-6.928-17.591-12.801-24.993c-12.584-15.86-33.113-48.114-35.64-92.134c-3.676-64.031,53.112-96.088,104.932-91.736
			c51.82,4.352,102.952,42.936,97.355,102.503c-3.444,36.652-23.959,64.453-39.233,80.419
			c-9.699,10.138-16.618,22.556-20.363,36.078c-4.584,16.55-15.492,37.175-41.421,38.432
			C1941.282,1343.45,1927.347,1312.177,1922.005,1293.254z"/>
		
			<linearGradient id="SVGID_00000173146921034778692050000008294719740210053276_" gradientUnits="userSpaceOnUse" x1="1993.7053" y1="1244.9352" x2="2001.1512" y2="1481.5138">
			<stop  offset="0" style="stop-color:#E1473D"/>
			<stop  offset="1" style="stop-color:#E9605A"/>
		</linearGradient>
		<path style="fill:url(#SVGID_00000173146921034778692050000008294719740210053276_);" d="M1983.403,1329.054l18.131-117.93
			c0.375-2.436,1.574-4.072,2.678-3.654c1.104,0.418,1.696,2.732,1.322,5.168c-0.01,0.065-0.023,0.145-0.035,0.209l-20.653,116.834
			c-0.155,0.879-0.602,1.433-0.997,1.239C1983.467,1330.732,1983.273,1329.905,1983.403,1329.054z"/>
		
			<linearGradient id="SVGID_00000137097598614701817140000003904146964529395083_" gradientUnits="userSpaceOnUse" x1="1952.6888" y1="1246.2261" x2="1960.1349" y2="1482.8051">
			<stop  offset="0" style="stop-color:#E1473D"/>
			<stop  offset="1" style="stop-color:#E9605A"/>
		</linearGradient>
		<path style="fill:url(#SVGID_00000137097598614701817140000003904146964529395083_);" d="M1964.582,1329.99l-18.131-117.93
			c-0.375-2.436-1.574-4.073-2.678-3.655c-1.104,0.418-1.696,2.732-1.322,5.168c0.01,0.065,0.023,0.145,0.035,0.209l20.653,116.834
			c0.155,0.878,0.601,1.433,0.997,1.239C1964.518,1331.668,1964.712,1330.841,1964.582,1329.99z"/>
		<path style="opacity:0.77;fill:#FFFFFF;" d="M2001.405,1200.999c-0.46-0.74-1.526-1.017-2.38-0.618l-10.096,4.717l-3.504-9.986
			c-0.186-0.521-0.615-0.983-1.228-1.235c-1.161-0.479-2.55-0.05-3.102,0.956l-0.018,0.032l-8.303,15.139l-7.705-21.551
			l-0.013-0.036c-0.189-0.526-0.586-0.998-1.166-1.315c-1.292-0.705-2.999-0.369-3.812,0.751l-11.608,15.98
			c-0.472,0.655-0.31,1.532,0.409,2.017c0.767,0.517,1.872,0.396,2.468-0.268l10.22-11.401l9.202,20.501l0.007,0.016
			c0.148,0.328,0.425,0.614,0.811,0.795c0.863,0.405,1.941,0.125,2.408-0.623l8.88-14.25l3.342,7.207l0.029,0.064
			c0.024,0.052,0.052,0.103,0.083,0.153c0.46,0.74,1.525,1.016,2.378,0.618l11.984-5.599
			C2001.546,1202.663,2001.865,1201.739,2001.405,1200.999z"/>
		<path style="opacity:0.84;fill:#FFFFFF;" d="M2037.01,1252.579c-0.574,0-1.153-0.177-1.649-0.547
			c-1.228-0.911-1.485-2.648-0.573-3.876c3.072-4.137,5.892-8.421,8.383-12.732c0.766-1.326,2.46-1.778,3.785-1.014
			c1.325,0.765,1.778,2.46,1.013,3.784c-2.596,4.495-5.533,8.957-8.731,13.266
			C2038.693,1252.193,2037.857,1252.579,2037.01,1252.579z"/>
		<path style="opacity:0.84;fill:#FFFFFF;" d="M2051.927,1226.979c-0.368,0-0.742-0.074-1.102-0.229
			c-1.403-0.61-2.047-2.242-1.438-3.645c19.077-43.934,2.639-80.778,2.471-81.146c-0.639-1.391-0.028-3.035,1.364-3.672
			c1.395-0.637,3.036-0.027,3.673,1.363c0.729,1.591,17.626,39.481-2.425,85.662
			C2054.017,1226.357,2052.998,1226.979,2051.927,1226.979z"/>
	</g>
</g>
</svg>
